<svg xmlns="http://www.w3.org/2000/svg" xmlns:xlink="http://www.w3.org/1999/xlink" width="114.636" height="114.636" viewBox="0 0 114.636 114.636"><defs><radialGradient id="a" cx="0.076" cy="0.019" r="1.465" gradientTransform="translate(0.001)" gradientUnits="objectBoundingBox"><stop offset="0" stop-color="#f6f6f7"/><stop offset="0.477" stop-color="#f9f9fa"/><stop offset="0.715" stop-color="#fff"/></radialGradient><clipPath id="b"><rect width="62.404" height="61.592" fill="none"/></clipPath></defs><g transform="translate(-269.991 -1590)"><g transform="translate(269.991 1590)"><g transform="translate(0 0)"><path d="M309.259,2203.037a57.318,57.318,0,1,1-57.317-57.316A57.317,57.317,0,0,1,309.259,2203.037Z" transform="translate(-194.623 -2145.721)" fill="#fff"/><path d="M308.648,2202.372a57.316,57.316,0,1,0-57.317,57.319A57.091,57.091,0,0,0,308.648,2202.372Z" transform="translate(-194.013 -2145.056)" fill="url(#a)"/><path d="M289.672,2196.986a43.75,43.75,0,1,0-43.75,43.75A43.587,43.587,0,0,0,289.672,2196.986Z" transform="translate(-188.43 -2139.479)" fill="none" stroke="#00223d" stroke-miterlimit="10" stroke-width="4"/><g transform="translate(10.154 32.18)"><path d="M299.231,2164.488a57.325,57.325,0,0,1-98.686,57.081,57.143,57.143,0,0,0,98.686-57.081Z" transform="translate(-200.545 -2164.488)" fill="#eceef0"/></g></g></g><g transform="translate(295.991 1617)"><g transform="translate(0 0)" clip-path="url(#b)"><path d="M35.838,51.273h-2.7a.69.69,0,1,1,0-1.381h2.7a12.163,12.163,0,0,0,6.853-2.1l1.976-1.342A.072.072,0,0,0,44.7,46.4a2.748,2.748,0,0,0-.9-.832,2.665,2.665,0,0,0-2.506,0,9.24,9.24,0,0,1-7.517.285.654.654,0,0,1-.077-.042A21.808,21.808,0,0,0,30.405,44.1,13.5,13.5,0,0,0,17.4,45.7a.69.69,0,1,1-.8-1.124,14.871,14.871,0,0,1,14.331-1.749,23.053,23.053,0,0,1,3.456,1.787,8.01,8.01,0,0,0,6.3-.287A3.959,3.959,0,0,1,45.85,45.64a1.419,1.419,0,0,1-.407,1.949l-1.977,1.341a13.526,13.526,0,0,1-7.628,2.344" transform="translate(-0.692 -1.77)" fill="#344154"/><path d="M17,55.283a.69.69,0,0,1-.131-1.367c.253-.05,6.321-1.2,16.982-.59a14.847,14.847,0,0,0,7.774-1.712l16.225-8.559c-.544-.66-1.653-1.357-3.818-.786a5.814,5.814,0,0,0-.783.282L45.06,46.04a.69.69,0,0,1-.541-1.27L52.7,41.281a7.073,7.073,0,0,1,.975-.347c3.064-.809,4.622.481,5.276,1.321a1.328,1.328,0,0,1-.422,2L42.267,52.834a16.229,16.229,0,0,1-8.5,1.869c-10.47-.6-16.581.555-16.642.567a.669.669,0,0,1-.131.012" transform="translate(-0.692 -1.726)" fill="#344154"/><path d="M16.56,59.272H10.543a.69.69,0,0,1,0-1.381h5.326V43.75H10.543a.69.69,0,1,1,0-1.38H16.56a.69.69,0,0,1,.69.689V58.582a.691.691,0,0,1-.69.69" transform="translate(-0.418 -1.797)" fill="#344154"/><path d="M10.126,63.189H.689a.69.69,0,0,1,0-1.381H9.435v-22.8H.689a.69.69,0,0,1,0-1.38h9.437a.69.69,0,0,1,.689.689V62.5a.69.69,0,0,1-.689.69" transform="translate(0 -1.596)" fill="#344154"/><path d="M7.455,41.234H2.119l.013.058a43.876,43.876,0,0,1,.273,18.6H7.455Z" transform="translate(-0.09 -1.749)" fill="#35b4cf"/><path d="M44.087,41.83a.691.691,0,0,1-.69-.69V30.282a.69.69,0,0,1,1.381,0V41.139a.691.691,0,0,1-.69.69" transform="translate(-1.841 -1.255)" fill="#344154"/><path d="M30.2,41.83a.691.691,0,0,1-.69-.69V30.282a.69.69,0,1,1,1.381,0V41.139a.691.691,0,0,1-.69.69" transform="translate(-1.252 -1.255)" fill="#344154"/><path d="M36.964,17.285a6.863,6.863,0,1,1,6.863-6.863,6.871,6.871,0,0,1-6.863,6.863m0-12.346a5.483,5.483,0,1,0,5.483,5.483,5.49,5.49,0,0,0-5.483-5.483" transform="translate(-1.277 -0.151)" fill="#344154"/><path d="M48.467,41.442a.691.691,0,0,1-.69-.69v-15.6a3.328,3.328,0,0,0-3.325-3.325H28.981a3.328,3.328,0,0,0-3.325,3.325v15.6a.69.69,0,1,1-1.38,0v-15.6a4.71,4.71,0,0,1,4.7-4.706H44.452a4.71,4.71,0,0,1,4.706,4.706v15.6a.691.691,0,0,1-.69.69" transform="translate(-1.03 -0.868)" fill="#344154"/><path d="M37.237,28.986a.691.691,0,0,1-.69-.69V21.141a.69.69,0,1,1,1.381,0V28.3a.691.691,0,0,1-.69.69" transform="translate(-1.551 -0.868)" fill="#344154"/><path d="M60.228,35.454a.691.691,0,0,1-.69-.69V26.375a.69.69,0,1,1,1.381,0v8.388a.691.691,0,0,1-.69.69" transform="translate(-2.526 -1.09)" fill="#344154"/><path d="M54.724,16.489a5.46,5.46,0,1,1,5.46-5.46,5.466,5.466,0,0,1-5.46,5.46m0-9.539A4.079,4.079,0,1,0,58.8,11.029,4.084,4.084,0,0,0,54.724,6.95" transform="translate(-2.09 -0.236)" fill="#344154"/><path d="M63.784,35.154a.691.691,0,0,1-.69-.69V22.414A2.414,2.414,0,0,0,60.682,20H49.5a.69.69,0,1,1,0-1.381H60.682a3.8,3.8,0,0,1,3.793,3.792v12.05a.691.691,0,0,1-.69.69" transform="translate(-2.071 -0.79)" fill="#344154"/><path d="M54.935,25.53a.691.691,0,0,1-.69-.69V19.312a.69.69,0,0,1,1.381,0V24.84a.691.691,0,0,1-.69.69" transform="translate(-2.301 -0.79)" fill="#344154"/><path d="M24.007,22.65a.562.562,0,0,1-.157-.023c-.427-.126-.956-.278-1.622-.468s-1.456-.416-2.424-.7a1.561,1.561,0,0,1-1.117-1.321,3.671,3.671,0,0,1,.8-3.216c.642-.833,1.367-1.776.542-6.685a.549.549,0,0,1,1.082-.182c.9,5.381.024,6.525-.754,7.536a2.644,2.644,0,0,0-.578,2.421.465.465,0,0,0,.333.394c.966.281,1.76.508,2.42.7s1.2.344,1.634.472a.549.549,0,0,1-.156,1.074" transform="translate(-0.791 -0.407)" fill="#344154"/><path d="M22.28,18.224a6.9,6.9,0,0,1-1.164-.1A.549.549,0,0,1,21.3,17.04a4.913,4.913,0,0,0,4.6-1.491c-2.826-.868-3.243-4-3.615-6.788a14.917,14.917,0,0,0-.859-3.927A6.87,6.87,0,0,0,15.212,1.1a.549.549,0,1,1,0-1.1,8,8,0,0,1,7.214,4.386,15.88,15.88,0,0,1,.945,4.23c.472,3.543.947,5.718,3.559,6.032a.548.548,0,0,1,.408.821,6.121,6.121,0,0,1-5.059,2.756" transform="translate(-0.622 0)" fill="#344154"/><path d="M7.628,18.224a6.123,6.123,0,0,1-5.059-2.756.549.549,0,0,1,.408-.821c2.8-.337,3.189-3.183,3.6-6.2a15.373,15.373,0,0,1,.907-4.066A7.993,7.993,0,0,1,14.7,0a.549.549,0,1,1,0,1.1A6.868,6.868,0,0,0,8.484,4.834,14.691,14.691,0,0,0,7.662,8.6c-.389,2.86-.825,6.068-3.654,6.948a4.906,4.906,0,0,0,4.6,1.492.549.549,0,0,1,.185,1.082,6.9,6.9,0,0,1-1.164.1" transform="translate(-0.106 0)" fill="#344154"/><path d="M15.022,25.027a.548.548,0,0,1-.328-.109l-4.292-3.2a.549.549,0,0,1,.656-.88l3.964,2.96,3.964-2.96a.549.549,0,0,1,.656.88l-4.292,3.2a.548.548,0,0,1-.328.109" transform="translate(-0.432 -0.879)" fill="#344154"/><path d="M.615,34.959a.633.633,0,0,1-.073,0,.549.549,0,0,1-.472-.616L1.16,26.071a5.844,5.844,0,0,1,4.076-4.5l4.626-1.344a.465.465,0,0,0,.333-.394l.011-.1a2.711,2.711,0,0,0-.5-2.2A5.609,5.609,0,0,1,8.431,14a29.928,29.928,0,0,1,.561-4.857A4.615,4.615,0,0,1,12.2,5.531a2.918,2.918,0,0,1,3.1,1.009c.218.269.41.553.595.826a7.516,7.516,0,0,0,.779,1.022,3.506,3.506,0,0,0,3.012.99.549.549,0,0,1,.182,1.082,4.567,4.567,0,0,1-3.982-1.309,8.414,8.414,0,0,1-.9-1.17c-.18-.266-.35-.518-.539-.751a1.845,1.845,0,0,0-1.977-.637,3.489,3.489,0,0,0-2.4,2.749,29.04,29.04,0,0,0-.544,4.631,4.522,4.522,0,0,0,1.033,2.878,3.79,3.79,0,0,1,.735,3.024l-.011.088a1.56,1.56,0,0,1-1.117,1.32L5.508,22.638A4.686,4.686,0,0,0,2.242,26.25L1.158,34.482a.549.549,0,0,1-.543.477" transform="translate(-0.003 -0.23)" fill="#344154"/><path d="M15.212,32.349a.549.549,0,0,1-.549-.549v-7.18a.549.549,0,1,1,1.1,0V31.8a.549.549,0,0,1-.549.549" transform="translate(-0.622 -1.021)" fill="#344154"/><path d="M6.1,25l-.07.02-.071.016A3.081,3.081,0,0,0,4,27.293l-.809,6.139a5.951,5.951,0,0,0,2.419-2.864c.443-1.141.58-2.5,1.518-3.286,1-.844,2.479-.662,3.769-.9a5.385,5.385,0,0,0,1.687-.628l-2.541-1.9Z" transform="translate(-0.135 -1.012)" fill="#ffc524"/></g></g></g></svg>