<svg xmlns="http://www.w3.org/2000/svg" xmlns:xlink="http://www.w3.org/1999/xlink" width="114.636" height="114.636" viewBox="0 0 114.636 114.636"><defs><radialGradient id="a" cx="0.076" cy="0.019" r="1.465" gradientTransform="translate(0.001)" gradientUnits="objectBoundingBox"><stop offset="0" stop-color="#f6f6f7"/><stop offset="0.477" stop-color="#f9f9fa"/><stop offset="0.715" stop-color="#fff"/></radialGradient><clipPath id="b"><rect width="52.242" height="57.893" fill="none"/></clipPath></defs><g transform="translate(-899.991 -1590)"><g transform="translate(899.991 1590)"><g transform="translate(0 0)"><path d="M309.259,2203.037a57.318,57.318,0,1,1-57.317-57.316A57.317,57.317,0,0,1,309.259,2203.037Z" transform="translate(-194.623 -2145.721)" fill="#fff"/><path d="M308.648,2202.372a57.316,57.316,0,1,0-57.317,57.319A57.091,57.091,0,0,0,308.648,2202.372Z" transform="translate(-194.013 -2145.056)" fill="url(#a)"/><path d="M289.672,2196.986a43.75,43.75,0,1,0-43.75,43.75A43.587,43.587,0,0,0,289.672,2196.986Z" transform="translate(-188.43 -2139.479)" fill="none" stroke="#00223d" stroke-miterlimit="10" stroke-width="4"/><g transform="translate(10.154 32.18)"><path d="M299.231,2164.488a57.325,57.325,0,0,1-98.686,57.081,57.143,57.143,0,0,0,98.686-57.081Z" transform="translate(-200.545 -2164.488)" fill="#eceef0"/></g></g></g><g transform="translate(930.991 1619)"><g transform="translate(0 0)" clip-path="url(#b)"><path d="M20.3,44.561a.69.69,0,0,1-.488-1.178l6.525-6.525a.69.69,0,1,1,.976.977l-6.524,6.524a.689.689,0,0,1-.488.2" transform="translate(-0.832 -1.556)" fill="#344154"/><path d="M33.544,44.152a.689.689,0,0,1-.488-.2l-6.434-6.435a.689.689,0,0,1-.2-.487v-7.2a.69.69,0,1,1,1.38,0v6.914l6.233,6.233a.69.69,0,0,1-.488,1.178" transform="translate(-1.121 -1.237)" fill="#344154"/><path d="M31.576,25.432a.691.691,0,0,1-.69-.69V17.663a.69.69,0,0,1,1.381,0v7.078a.691.691,0,0,1-.69.69" transform="translate(-1.31 -0.721)" fill="#344154"/><path d="M31.192,25.432H22.521a.69.69,0,0,1-.689-.69V17.663a.69.69,0,1,1,1.38,0v6.388h7.98a.69.69,0,1,1,0,1.381" transform="translate(-0.926 -0.721)" fill="#344154"/><path d="M26.932,9.43a4.715,4.715,0,1,1,4.715-4.715A4.72,4.72,0,0,1,26.932,9.43m0-8.049a3.335,3.335,0,1,0,3.334,3.334,3.338,3.338,0,0,0-3.334-3.334" transform="translate(-0.943 0)" fill="#344154"/><path d="M19.109,25.179a.691.691,0,0,1-.69-.69V14.321a3.312,3.312,0,0,1,3.308-3.308H31.814a3.311,3.311,0,0,1,3.307,3.308v9.185a.69.69,0,1,1-1.38,0V14.321a1.93,1.93,0,0,0-1.928-1.928H21.727A1.93,1.93,0,0,0,19.8,14.321V24.489a.691.691,0,0,1-.69.69" transform="translate(-0.781 -0.468)" fill="#344154"/><path d="M13.157,60.083a.691.691,0,0,1-.69-.69V52.314a.69.69,0,1,1,1.381,0v7.078a.691.691,0,0,1-.69.69" transform="translate(-0.529 -2.191)" fill="#344154"/><path d="M12.773,60.083H4.1a.69.69,0,0,1-.689-.69V52.314a.69.69,0,1,1,1.38,0V58.7h7.98a.69.69,0,1,1,0,1.381" transform="translate(-0.145 -2.191)" fill="#344154"/><path d="M8.512,44.081a4.715,4.715,0,1,1,4.715-4.715,4.721,4.721,0,0,1-4.715,4.715m0-8.049a3.335,3.335,0,1,0,3.334,3.334,3.338,3.338,0,0,0-3.334-3.334" transform="translate(-0.161 -1.471)" fill="#344154"/><path d="M.69,59.83A.691.691,0,0,1,0,59.14V48.972a3.311,3.311,0,0,1,3.308-3.307H13.395A3.311,3.311,0,0,1,16.7,48.972v9.185a.69.69,0,1,1-1.38,0V48.972a1.93,1.93,0,0,0-1.929-1.928H3.308a1.93,1.93,0,0,0-1.928,1.928V59.14a.691.691,0,0,1-.69.69" transform="translate(0 -1.938)" fill="#344154"/><path d="M50.271,60.083a.691.691,0,0,1-.69-.69V52.314a.69.69,0,1,1,1.381,0v7.078a.691.691,0,0,1-.69.69" transform="translate(-2.104 -2.191)" fill="#344154"/><path d="M49.887,60.083H41.216a.69.69,0,0,1-.689-.69V52.314a.69.69,0,1,1,1.38,0V58.7h7.98a.69.69,0,1,1,0,1.381" transform="translate(-1.719 -2.191)" fill="#344154"/><path d="M45.627,44.081a4.715,4.715,0,1,1,4.715-4.715,4.721,4.721,0,0,1-4.715,4.715m0-8.049a3.335,3.335,0,1,0,3.334,3.334,3.338,3.338,0,0,0-3.334-3.334" transform="translate(-1.736 -1.471)" fill="#344154"/><path d="M37.8,59.83a.691.691,0,0,1-.69-.69V48.972a3.311,3.311,0,0,1,3.308-3.307H50.509a3.311,3.311,0,0,1,3.308,3.307v9.185a.69.69,0,1,1-1.38,0V48.972a1.93,1.93,0,0,0-1.929-1.928H40.422a1.93,1.93,0,0,0-1.928,1.928V59.14a.691.691,0,0,1-.69.69" transform="translate(-1.575 -1.938)" fill="#344154"/><path d="M8.637,54.652l1.916-1.63L9.44,48.594H7.833L6.721,53.023Z" transform="translate(-0.285 -2.062)" fill="#ffc524"/><path d="M27.056,19.858l1.916-1.63L27.86,13.8H26.253L25.14,18.228Z" transform="translate(-1.067 -0.586)" fill="#35b4cf"/><path d="M45.751,54.517l1.916-1.63-1.113-4.429H44.948l-1.113,4.429Z" transform="translate(-1.86 -2.056)" fill="#ffc524"/></g></g></g></svg>