<svg xmlns="http://www.w3.org/2000/svg" xmlns:xlink="http://www.w3.org/1999/xlink" width="114.636" height="114.636" viewBox="0 0 114.636 114.636"><defs><radialGradient id="a" cx="0.076" cy="0.019" r="1.465" gradientTransform="translate(0.001)" gradientUnits="objectBoundingBox"><stop offset="0" stop-color="#f6f6f7"/><stop offset="0.477" stop-color="#f9f9fa"/><stop offset="0.715" stop-color="#fff"/></radialGradient><clipPath id="b"><rect width="62.909" height="55.193" fill="none"/></clipPath></defs><g transform="translate(-582.991 -1590)"><g transform="translate(582.991 1590)"><g transform="translate(0 0)"><path d="M309.259,2203.037a57.318,57.318,0,1,1-57.317-57.316A57.317,57.317,0,0,1,309.259,2203.037Z" transform="translate(-194.623 -2145.721)" fill="#fff"/><path d="M308.648,2202.372a57.316,57.316,0,1,0-57.317,57.319A57.091,57.091,0,0,0,308.648,2202.372Z" transform="translate(-194.013 -2145.056)" fill="url(#a)"/><path d="M289.672,2196.986a43.75,43.75,0,1,0-43.75,43.75A43.587,43.587,0,0,0,289.672,2196.986Z" transform="translate(-188.43 -2139.479)" fill="none" stroke="#00223d" stroke-miterlimit="10" stroke-width="4"/><g transform="translate(10.154 32.18)"><path d="M299.231,2164.488a57.325,57.325,0,0,1-98.686,57.081,57.143,57.143,0,0,0,98.686-57.081Z" transform="translate(-200.545 -2164.488)" fill="#eceef0"/></g></g></g><g transform="translate(608.991 1620)"><g transform="translate(0 0)" clip-path="url(#b)"><path d="M29.448,45.306a.69.69,0,0,1-.664-.5L27.72,41.041A11.4,11.4,0,0,0,21.542,33.8L18.9,32.572a6.588,6.588,0,0,1-3.571-4.185l-1.278-4.508a.689.689,0,0,1-.02-.28l.1-.758A3.2,3.2,0,0,0,12.648,19.7l-.066-.041a.69.69,0,0,1,.729-1.172l.065.04A4.582,4.582,0,0,1,15.5,23.023l-.082.617,1.24,4.371a5.212,5.212,0,0,0,2.823,3.308l2.641,1.225a12.774,12.774,0,0,1,6.926,8.122l1.065,3.762a.691.691,0,0,1-.476.852.716.716,0,0,1-.189.026" transform="translate(-0.52 -0.78)" fill="#344154"/><path d="M18.233,49.656a.687.687,0,0,1-.611-.369,5.954,5.954,0,0,0-4.066-3.077q-.307-.063-.6-.136a12.2,12.2,0,0,1-7.505-5.815,62.714,62.714,0,0,0-5.292-7.5.692.692,0,0,1,.031-.918,4.189,4.189,0,0,1,3.077-1.162c1.638.08,3.243,1.114,4.773,3.071a8.314,8.314,0,0,0,7.273,3.261c.171-.015.345-.035.522-.059a.69.69,0,0,1,.188,1.367q-.3.042-.59.066A9.7,9.7,0,0,1,6.952,34.6c-1.263-1.617-2.518-2.472-3.731-2.541a2.778,2.778,0,0,0-1.546.375,61.278,61.278,0,0,1,4.972,7.134,10.817,10.817,0,0,0,6.644,5.164q.264.066.544.124a7.323,7.323,0,0,1,5.007,3.785.691.691,0,0,1-.609,1.012" transform="translate(0 -1.301)" fill="#344154"/><path d="M3.643,31.3a.691.691,0,0,1-.674-.543L1.653,24.748a.7.7,0,0,1,.018-.361L5.535,12.529a.689.689,0,0,1,.824-.456c.981.245,2.694,1.549,2.157,4.723L6.792,24.389l1.158,4.718a.69.69,0,1,1-1.341.328l-1.2-4.876a.7.7,0,0,1,0-.318l1.752-7.714a2.916,2.916,0,0,0-.576-2.771L3.043,24.636l1.275,5.831a.69.69,0,0,1-.528.822.7.7,0,0,1-.147.016" transform="translate(-0.069 -0.511)" fill="#344154"/><path d="M10.434,29.176a.69.69,0,0,1-.664-.5L8.488,24.142a.7.7,0,0,1-.013-.318l1.606-8.376c.535-2.114-.216-3.2-.831-3.713l-.772,2.382a.69.69,0,1,1-1.313-.425L8.2,10.49a.689.689,0,0,1,.894-.435c1.194.439,3.218,2.193,2.332,5.693L9.861,23.924,11.1,28.3a.691.691,0,0,1-.476.852.716.716,0,0,1-.189.026" transform="translate(-0.303 -0.424)" fill="#344154"/><path d="M13.34,28.722a.69.69,0,0,1-.663-.5l-1.325-4.614a.687.687,0,0,1-.015-.318l.929-4.961A3.683,3.683,0,0,0,10.829,14.7l-.146-.107A.69.69,0,1,1,11.5,13.48l.146.107a5.071,5.071,0,0,1,1.976,5l-.9,4.8L14,27.841a.69.69,0,0,1-.664.881" transform="translate(-0.441 -0.566)" fill="#344154"/><path d="M19.265,57.105a.69.69,0,0,1-.641-.434L16.192,50.6A.691.691,0,0,1,16.6,49.7L29.38,45.1a.689.689,0,0,1,.924.649v3.077a.69.69,0,0,1-1.381,0v-2.1L17.739,50.754l1.93,4.815,8.426-2.593a.69.69,0,1,1,.406,1.32l-9.033,2.78a.71.71,0,0,1-.2.031" transform="translate(-0.685 -1.911)" fill="#344154"/><path d="M17.93,53.8a.69.69,0,0,1-.23-1.341L29.43,48.307a.69.69,0,1,1,.46,1.3L18.16,53.755a.664.664,0,0,1-.23.04" transform="translate(-0.731 -2.048)" fill="#344154"/><path d="M35.454,45.306a.716.716,0,0,1-.189-.026.691.691,0,0,1-.476-.852l1.065-3.762a12.777,12.777,0,0,1,6.926-8.122l2.641-1.225a5.212,5.212,0,0,0,2.823-3.308l1.24-4.371-.082-.617a4.584,4.584,0,0,1,2.126-4.491l.066-.041a.69.69,0,1,1,.725,1.174l-.065.04a3.2,3.2,0,0,0-1.483,3.136l.1.758a.724.724,0,0,1-.02.28l-1.279,4.508A6.588,6.588,0,0,1,46,32.572L43.361,33.8a11.4,11.4,0,0,0-6.178,7.245L36.118,44.8a.69.69,0,0,1-.664.5" transform="translate(-1.475 -0.78)" fill="#344154"/><path d="M46.624,49.656a.682.682,0,0,1-.322-.08.689.689,0,0,1-.288-.932,7.325,7.325,0,0,1,5.009-3.785q.279-.057.544-.124a10.818,10.818,0,0,0,6.643-5.164,61.4,61.4,0,0,1,4.972-7.134,2.78,2.78,0,0,0-1.546-.375c-1.212.069-2.468.924-3.731,2.541a9.691,9.691,0,0,1-8.48,3.785q-.29-.024-.59-.066a.69.69,0,1,1,.188-1.367q.266.036.523.059a8.419,8.419,0,0,0,7.272-3.261c1.528-1.957,3.134-2.99,4.773-3.071a4.2,4.2,0,0,1,3.077,1.162.691.691,0,0,1,.031.918,62.834,62.834,0,0,0-5.292,7.5A12.2,12.2,0,0,1,51.9,46.075q-.293.073-.6.136a5.952,5.952,0,0,0-4.067,3.077.69.69,0,0,1-.611.369" transform="translate(-1.949 -1.301)" fill="#344154"/><path d="M61.743,31.3a.7.7,0,0,1-.147-.016.69.69,0,0,1-.528-.822l1.275-5.831L58.8,13.756c-.41.392-.841,1.2-.569,2.81l1.746,7.676a.686.686,0,0,1,0,.318l-1.2,4.876a.69.69,0,1,1-1.341-.328l1.158-4.718-1.717-7.555c-.545-3.212,1.169-4.516,2.15-4.761a.688.688,0,0,1,.824.456l3.863,11.859a.68.68,0,0,1,.018.361l-1.315,6.014a.691.691,0,0,1-.674.543" transform="translate(-2.409 -0.511)" fill="#344154"/><path d="M55.062,29.176a.716.716,0,0,1-.189-.026A.691.691,0,0,1,54.4,28.3l1.237-4.374-1.575-8.215c-.878-3.461,1.146-5.215,2.339-5.654a.69.69,0,0,1,.9.435l1.037,3.2a.69.69,0,1,1-1.313.425l-.773-2.383c-.614.507-1.368,1.586-.84,3.675l1.615,8.416a.682.682,0,0,1-.014.317l-1.281,4.531a.69.69,0,0,1-.664.5" transform="translate(-2.285 -0.424)" fill="#344154"/><path d="M52.194,28.722a.69.69,0,0,1-.664-.881l1.28-4.457-.9-4.8a5.072,5.072,0,0,1,1.977-5l.146-.107a.69.69,0,1,1,.816,1.114l-.146.107a3.684,3.684,0,0,0-1.436,3.629l.93,4.961a.7.7,0,0,1-.015.318l-1.326,4.614a.69.69,0,0,1-.663.5" transform="translate(-2.185 -0.566)" fill="#344154"/><path d="M45.8,57.105a.678.678,0,0,1-.2-.031l-9.033-2.78a.69.69,0,0,1,.406-1.32L45.4,55.568l1.929-4.815L36.145,46.728v2.1a.69.69,0,0,1-1.38,0V45.746a.689.689,0,0,1,.923-.649l12.781,4.6a.688.688,0,0,1,.407.906l-2.431,6.068a.69.69,0,0,1-.641.434" transform="translate(-1.475 -1.911)" fill="#344154"/><path d="M47.185,53.8a.664.664,0,0,1-.23-.04l-11.73-4.146a.69.69,0,0,1,.461-1.3l11.729,4.147a.69.69,0,0,1-.23,1.341" transform="translate(-1.475 -2.048)" fill="#344154"/><path d="M32.51,0A13.471,13.471,0,1,0,45.98,13.47,13.47,13.47,0,0,0,32.51,0m0,23.68A10.209,10.209,0,1,1,42.72,13.47,10.21,10.21,0,0,1,32.51,23.68" transform="translate(-0.808 0)" fill="#35b4cf"/><path d="M32.954,20A3.456,3.456,0,0,1,29.5,16.544a.69.69,0,1,1,1.38,0,2.072,2.072,0,0,0,4.144,0c0-.992-.62-1.563-2.286-2.107-.8-.261-3.239-1.056-3.239-3.418a3.452,3.452,0,1,1,6.9,0,.69.69,0,0,1-1.38,0,2.072,2.072,0,0,0-4.144,0c0,.633.26,1.444,2.286,2.106,1.508.492,3.239,1.325,3.239,3.419A3.456,3.456,0,0,1,32.954,20" transform="translate(-1.252 -0.321)" fill="#344154"/><path d="M33.076,8.9a.691.691,0,0,1-.69-.69V6.65a.69.69,0,1,1,1.381,0V8.208a.691.691,0,0,1-.69.69" transform="translate(-1.374 -0.252)" fill="#344154"/><path d="M33.076,22.045a.691.691,0,0,1-.69-.69V19.8a.69.69,0,1,1,1.381,0v1.558a.691.691,0,0,1-.69.69" transform="translate(-1.374 -0.81)" fill="#344154"/></g></g></g></svg>