<svg xmlns="http://www.w3.org/2000/svg" xmlns:xlink="http://www.w3.org/1999/xlink" width="114.636" height="114.636" viewBox="0 0 114.636 114.636"><defs><radialGradient id="a" cx="0.076" cy="0.019" r="1.465" gradientTransform="translate(0.001)" gradientUnits="objectBoundingBox"><stop offset="0" stop-color="#f6f6f7"/><stop offset="0.477" stop-color="#f9f9fa"/><stop offset="0.715" stop-color="#fff"/></radialGradient><clipPath id="b"><rect width="54.133" height="61.529" fill="none"/></clipPath></defs><g transform="translate(-899.991 -1116)"><g transform="translate(899.991 1116)"><g transform="translate(0 0)"><path d="M309.259,2203.037a57.318,57.318,0,1,1-57.317-57.316A57.317,57.317,0,0,1,309.259,2203.037Z" transform="translate(-194.623 -2145.721)" fill="#fff"/><path d="M308.648,2202.372a57.316,57.316,0,1,0-57.317,57.319A57.091,57.091,0,0,0,308.648,2202.372Z" transform="translate(-194.013 -2145.056)" fill="url(#a)"/><path d="M289.672,2196.986a43.75,43.75,0,1,0-43.75,43.75A43.587,43.587,0,0,0,289.672,2196.986Z" transform="translate(-188.43 -2139.479)" fill="none" stroke="#00223d" stroke-miterlimit="10" stroke-width="4"/><g transform="translate(10.154 32.18)"><path d="M299.231,2164.488a57.325,57.325,0,0,1-98.686,57.081,57.143,57.143,0,0,0,98.686-57.081Z" transform="translate(-200.545 -2164.488)" fill="#eceef0"/></g></g></g><g transform="translate(929.991 1143)"><g transform="translate(0 0)" clip-path="url(#b)"><path d="M23.728,39.479a.691.691,0,0,1-.69-.69V20.317a.69.69,0,0,1,1.381,0V38.789a.691.691,0,0,1-.69.69" transform="translate(-0.977 -0.832)" fill="#344154"/><path d="M28.235,39.69a.691.691,0,0,1-.69-.69V25.28a.69.69,0,1,1,1.381,0V39a.691.691,0,0,1-.69.69" transform="translate(-1.169 -1.043)" fill="#344154"/><path d="M32.742,39.69a.691.691,0,0,1-.69-.69V25.28a.69.69,0,0,1,1.381,0V39a.691.691,0,0,1-.69.69" transform="translate(-1.36 -1.043)" fill="#344154"/><path d="M32.742,25.76a.691.691,0,0,1-.69-.69V20.317a.69.69,0,0,1,1.381,0V25.07a.691.691,0,0,1-.69.69" transform="translate(-1.36 -0.832)" fill="#344154"/><path d="M28.055,9.5a4.752,4.752,0,1,1,4.751-4.752A4.758,4.758,0,0,1,28.055,9.5m0-8.124a3.372,3.372,0,1,0,3.372,3.372,3.375,3.375,0,0,0-3.372-3.372" transform="translate(-0.989 0)" fill="#344154"/><path d="M20.161,25.4a.691.691,0,0,1-.69-.69V14.447A3.336,3.336,0,0,1,22.8,11.115h10.18a3.335,3.335,0,0,1,3.331,3.332v9.27a.69.69,0,0,1-1.38,0v-9.27A1.953,1.953,0,0,0,32.983,12.5H22.8a1.953,1.953,0,0,0-1.952,1.952V24.709a.691.691,0,0,1-.69.69" transform="translate(-0.826 -0.471)" fill="#344154"/><path d="M32.36,25.971H23.728a.69.69,0,1,1,0-1.381H32.36a.69.69,0,1,1,0,1.381" transform="translate(-0.977 -1.043)" fill="#344154"/><path d="M27.15,63.016h0a.692.692,0,0,1-.543-.264c-2.35-3-5.989-7.3-6.025-7.346a.69.69,0,0,1,.527-1.136H22.72a1.517,1.517,0,0,0,1.563-1.127V49.037A4.385,4.385,0,0,0,19.9,44.656H9.873a1.517,1.517,0,0,0-1.127,1.563v1.611a.69.69,0,0,1-1.136.528c-.043-.036-4.349-3.675-7.346-6.025a.69.69,0,0,1,0-1.086c3-2.351,7.3-5.989,7.346-6.025a.69.69,0,0,1,1.136.527v1.612a1.519,1.519,0,0,0,1.127,1.563h4.886a.69.69,0,0,1,0,1.38H9.826a.81.81,0,0,1-.083,0,2.859,2.859,0,0,1-2.377-2.938v-.13C6.03,38.346,3.749,40.24,1.8,41.789c1.946,1.547,4.227,3.442,5.563,4.56v-.13a2.862,2.862,0,0,1,2.352-2.935.646.646,0,0,1,.106-.009H19.9a5.767,5.767,0,0,1,5.759,5.762v4.154a.81.81,0,0,1,0,.083,2.858,2.858,0,0,1-2.938,2.377h-.13c1.117,1.336,3.013,3.617,4.56,5.563,1.548-1.946,3.442-4.227,4.56-5.563h-.13a2.859,2.859,0,0,1-2.938-2.377.811.811,0,0,1,0-.083V49.037A5.767,5.767,0,0,1,34.4,43.275h9.911a.585.585,0,0,1,.082.006,2.858,2.858,0,0,1,2.378,2.938v.13c1.335-1.117,3.616-3.013,5.562-4.56-1.946-1.548-4.227-3.442-5.562-4.56v.13A2.859,2.859,0,0,1,44.391,40.3a.777.777,0,0,1-.082,0H39.376a.69.69,0,1,1,0-1.38h4.885a1.519,1.519,0,0,0,1.127-1.563V35.747a.69.69,0,0,1,1.136-.527c.044.036,4.349,3.674,7.346,6.025a.69.69,0,0,1,0,1.086c-3,2.35-7.3,5.989-7.346,6.025a.69.69,0,0,1-1.136-.528V46.218a1.517,1.517,0,0,0-1.127-1.563H34.4a4.385,4.385,0,0,0-4.381,4.381v4.107a1.518,1.518,0,0,0,1.563,1.127h1.612a.69.69,0,0,1,.527,1.136c-.036.043-3.675,4.349-6.025,7.346a.692.692,0,0,1-.543.264" transform="translate(0 -1.487)" fill="#344154"/><path d="M23.166,14.4v2.614l2.086-.558a10.83,10.83,0,0,1,5.6,0l2.085.558V14.4Z" transform="translate(-0.983 -0.611)" fill="#ffc524"/></g></g></g></svg>