<svg xmlns="http://www.w3.org/2000/svg" xmlns:xlink="http://www.w3.org/1999/xlink" width="114.636" height="114.636" viewBox="0 0 114.636 114.636"><defs><radialGradient id="a" cx="0.076" cy="0.019" r="1.465" gradientTransform="translate(0.001)" gradientUnits="objectBoundingBox"><stop offset="0" stop-color="#f6f6f7"/><stop offset="0.477" stop-color="#f9f9fa"/><stop offset="0.715" stop-color="#fff"/></radialGradient><clipPath id="b"><rect width="55.815" height="55.161" fill="none"/></clipPath></defs><g transform="translate(-1214.991 -1590)"><g transform="translate(1214.991 1590)"><g transform="translate(0 0)"><path d="M309.259,2203.037a57.318,57.318,0,1,1-57.317-57.316A57.317,57.317,0,0,1,309.259,2203.037Z" transform="translate(-194.623 -2145.721)" fill="#fff"/><path d="M308.648,2202.372a57.316,57.316,0,1,0-57.317,57.319A57.091,57.091,0,0,0,308.648,2202.372Z" transform="translate(-194.013 -2145.056)" fill="url(#a)"/><path d="M289.672,2196.986a43.75,43.75,0,1,0-43.75,43.75A43.587,43.587,0,0,0,289.672,2196.986Z" transform="translate(-188.43 -2139.479)" fill="none" stroke="#00223d" stroke-miterlimit="10" stroke-width="4"/><g transform="translate(10.154 32.18)"><path d="M299.231,2164.488a57.325,57.325,0,0,1-98.686,57.081,57.143,57.143,0,0,0,98.686-57.081Z" transform="translate(-200.545 -2164.488)" fill="#eceef0"/></g></g></g><g transform="translate(1243.991 1620)"><g transform="translate(0 0)" clip-path="url(#b)"><path d="M17.777,35.555A17.777,17.777,0,1,1,33.87,10.213a.625.625,0,0,1-1.131.532A16.529,16.529,0,1,0,17.777,34.3a16.361,16.361,0,0,0,10.135-3.47.625.625,0,1,1,.767.986,17.605,17.605,0,0,1-10.9,3.734" transform="translate(0 0)" fill="#344154"/><path d="M14.7,34.354c-.027-.127-.057-.254-.081-.38-.458-2.392-.5-4.848-.967-7.238a10.659,10.659,0,0,0-3.3-6.349c-1.835-1.505-4.266-1.979-6.543-2.667A14.634,14.634,0,0,0,14.7,34.354" transform="translate(-0.48 -2.361)" fill="#35b4cf"/><path d="M9.506,7.147c.24.439.476.878.709,1.31,1.173,2.173,2.726,4.451,5.125,5.034a7.258,7.258,0,0,0,5.654-1.456c1.653-1.138,3.045-2.617,4.679-3.781a14.631,14.631,0,0,1,2.5-1.433,14.591,14.591,0,0,0-18.672.325" transform="translate(-1.267 -0.48)" fill="#ffc524"/><path d="M50.659,58.705H23.238L24.669,47.5a7.2,7.2,0,0,1,2.472-4.133,5.992,5.992,0,0,1,2.492-1.294l5.644-1.64a.593.593,0,0,0,.172-.081.612.612,0,0,0,.267-.439L35.938,38A10.453,10.453,0,0,1,32.753,33a3.2,3.2,0,0,1-1.92-3.184,3.181,3.181,0,0,1,1.975-3.2.625.625,0,1,1,.342,1.2,2,2,0,0,0-1.068,2c0,1.075.538,1.967,1.226,2.03l.436.04.112.423a9.177,9.177,0,0,0,3.125,4.923l.277.215-.3,2.605a1.867,1.867,0,0,1-1.333,1.577l-5.683,1.65a4.793,4.793,0,0,0-2,1.048A5.932,5.932,0,0,0,25.9,47.722l-1.242,9.733h26a.625.625,0,1,1,0,1.25" transform="translate(-3.097 -3.544)" fill="#344154"/><path d="M62.241,58.705H53.989a.625.625,0,1,1,0-1.25h6.833l-1.241-9.733a5.941,5.941,0,0,0-2.039-3.391,4.759,4.759,0,0,0-1.966-1.038l-5.722-1.66a1.864,1.864,0,0,1-1.333-1.577l-.3-2.605.277-.215a9.182,9.182,0,0,0,3.125-4.923l.111-.423.436-.04c.687-.063,1.226-.955,1.226-2.03a2,2,0,0,0-1.069-2,.625.625,0,0,1,.342-1.2,3.181,3.181,0,0,1,1.975,3.2A3.2,3.2,0,0,1,52.726,33,10.452,10.452,0,0,1,49.542,38l.221,1.915a.613.613,0,0,0,.44.521l5.683,1.649a5.959,5.959,0,0,1,2.452,1.284A7.2,7.2,0,0,1,60.811,47.5l.007.042Z" transform="translate(-6.427 -3.544)" fill="#344154"/><path d="M34.379,27.087a.624.624,0,0,1-.622-.581c-.01-.138-.221-3.389,1.088-5.306a.625.625,0,0,1,1.032.7A8.509,8.509,0,0,0,35,26.419a.624.624,0,0,1-.58.667.377.377,0,0,1-.044,0" transform="translate(-4.497 -2.789)" fill="#344154"/><path d="M52.869,27.236h-.031a.623.623,0,0,1-.593-.654,12.218,12.218,0,0,0-.49-3.619.625.625,0,1,1,1.2-.357,13.238,13.238,0,0,1,.54,4.038.624.624,0,0,1-.623.593" transform="translate(-6.894 -2.953)" fill="#344154"/><path d="M42.978,46.341,37.91,41.8a.625.625,0,0,1,.834-.931l4.234,3.792,4.234-3.792a.625.625,0,0,1,.834.931Z" transform="translate(-5.025 -5.426)" fill="#344154"/><path d="M47.007,21.157a7.471,7.471,0,0,1-1-.075,24.858,24.858,0,0,1-2.458-.494c-.5-.119-1.014-.241-1.519-.338a7.566,7.566,0,0,0-3.687.016.625.625,0,0,1-.367-1.194,8.739,8.739,0,0,1,4.29-.048c.53.1,1.059.227,1.571.348a23.5,23.5,0,0,0,2.334.472,4.191,4.191,0,0,0,1.72-.055,3.056,3.056,0,0,0,1.793-1.739,9.469,9.469,0,0,0,.326-2.933,7.037,7.037,0,0,1-4.1.075l-.685-.184.269-.656c.009-.022.016-.043.023-.065a23.673,23.673,0,0,1-3.923.784l-.14.018c-2.541.335-5.289,2.158-5.317,5.37a.624.624,0,1,1-1.249-.011c.035-3.957,3.343-6.194,6.4-6.6l.143-.018a19.5,19.5,0,0,0,4.295-.947l.484-.2.279.442a1.9,1.9,0,0,1,.295.981,6.01,6.01,0,0,0,3.6-.461l.851-.356.015.922a12.384,12.384,0,0,1-.424,4.338,3.976,3.976,0,0,1-3.823,2.6" transform="translate(-4.65 -1.691)" fill="#344154"/><path d="M47.841,19.532a6.343,6.343,0,0,1-1.622-.274.625.625,0,1,1,.319-1.208,3.654,3.654,0,0,0,1.747.179,1.455,1.455,0,0,0,.995-.973.624.624,0,1,1,1.2.345A2.707,2.707,0,0,1,48.6,19.438a2.975,2.975,0,0,1-.763.094" transform="translate(-6.098 -2.239)" fill="#344154"/><path d="M43.693,54.488a.625.625,0,0,1-.625-.625V46.142a.625.625,0,1,1,1.25,0v7.721a.625.625,0,0,1-.625.625" transform="translate(-5.74 -6.066)" fill="#344154"/><path d="M43.247,34.329a.625.625,0,0,1-.625-.625V32.546a3.132,3.132,0,0,1,1.727-2.809,2.108,2.108,0,0,0,1.175-1.812c0-.039,0-.081,0-.124a2.293,2.293,0,0,0-2.149-2.181,2.277,2.277,0,0,0-2.4,2.274.625.625,0,0,1-1.25,0,3.544,3.544,0,0,1,1.1-2.561,3.5,3.5,0,0,1,2.62-.961,3.552,3.552,0,0,1,3.33,3.375c0,.062,0,.127,0,.191a3.324,3.324,0,0,1-1.86,2.914,1.889,1.889,0,0,0-1.042,1.694V33.7a.625.625,0,0,1-.625.625" transform="translate(-5.294 -3.247)" fill="#344154"/><path d="M43.631,38.981a1.028,1.028,0,1,1,1.028-1.028,1.03,1.03,0,0,1-1.028,1.028m0-1.25a.221.221,0,1,0,.222.222.222.222,0,0,0-.222-.222" transform="translate(-5.678 -4.921)" fill="#344154"/></g></g></g></svg>