<svg xmlns="http://www.w3.org/2000/svg" xmlns:xlink="http://www.w3.org/1999/xlink" width="507.45" height="445.832" viewBox="0 0 507.45 445.832"><defs><clipPath id="a"><rect width="197.562" height="222.187" fill="none"/></clipPath><clipPath id="c"><rect width="195.649" height="220.357" fill="none"/></clipPath><clipPath id="d"><rect width="193.753" height="218.533" fill="none"/></clipPath><clipPath id="e"><rect width="191.876" height="216.715" fill="none"/></clipPath><clipPath id="f"><rect width="190.014" height="214.902" fill="none"/></clipPath><clipPath id="g"><rect width="188.173" height="213.097" fill="none"/></clipPath><clipPath id="h"><rect width="186.35" height="211.298" fill="none"/></clipPath><clipPath id="i"><rect width="184.548" height="209.504" fill="none"/></clipPath><clipPath id="j"><rect width="182.765" height="207.719" fill="none"/></clipPath><clipPath id="k"><rect width="181.004" height="205.939" fill="none"/></clipPath><clipPath id="l"><rect width="179.264" height="204.167" fill="none"/></clipPath><clipPath id="m"><rect width="177.547" height="202.403" fill="none"/></clipPath><clipPath id="n"><rect width="175.853" height="200.645" fill="none"/></clipPath><clipPath id="o"><rect width="174.183" height="198.896" fill="none"/></clipPath><clipPath id="p"><rect width="172.537" height="197.154" fill="none"/></clipPath><clipPath id="q"><rect width="170.916" height="195.42" fill="none"/></clipPath><clipPath id="r"><rect width="169.32" height="193.695" fill="none"/></clipPath><clipPath id="s"><rect width="167.752" height="191.978" fill="none"/></clipPath><clipPath id="t"><rect width="166.211" height="190.269" fill="none"/></clipPath><clipPath id="u"><rect width="164.696" height="188.57" fill="none"/></clipPath><clipPath id="v"><rect width="163.211" height="186.879" fill="none"/></clipPath><clipPath id="w"><rect width="161.755" height="185.198" fill="none"/></clipPath><clipPath id="x"><rect width="160.33" height="183.527" fill="none"/></clipPath><clipPath id="y"><rect width="158.935" height="181.866" fill="none"/></clipPath><clipPath id="z"><rect width="157.571" height="180.214" fill="none"/></clipPath><clipPath id="aa"><rect width="156.24" height="178.573" fill="none"/></clipPath><clipPath id="ab"><rect width="154.943" height="176.943" fill="none"/></clipPath><clipPath id="ac"><rect width="153.679" height="175.324" fill="none"/></clipPath><clipPath id="ad"><rect width="152.448" height="173.714" fill="none"/></clipPath><clipPath id="ae"><rect width="151.252" height="172.118" fill="none"/></clipPath><clipPath id="af"><rect width="150.093" height="170.532" fill="none"/></clipPath><clipPath id="ag"><rect width="148.968" height="168.96" fill="none"/></clipPath><clipPath id="ah"><rect width="147.881" height="167.399" fill="none"/></clipPath><clipPath id="ai"><rect width="146.831" height="165.851" fill="none"/></clipPath><clipPath id="aj"><rect width="145.82" height="164.315" fill="none"/></clipPath><clipPath id="ak"><rect width="144.846" height="162.794" fill="none"/></clipPath><clipPath id="al"><rect width="143.911" height="161.285" fill="none"/></clipPath><clipPath id="am"><rect width="143.014" height="159.791" fill="none"/></clipPath><clipPath id="an"><rect width="142.157" height="158.312" fill="none"/></clipPath><clipPath id="ao"><rect width="141.339" height="156.847" fill="none"/></clipPath><clipPath id="ap"><rect width="140.562" height="155.397" fill="none"/></clipPath><clipPath id="aq"><rect width="139.825" height="153.963" fill="none"/></clipPath><clipPath id="ar"><rect width="139.128" height="152.543" fill="none"/></clipPath><clipPath id="as"><rect width="138.471" height="151.142" fill="none"/></clipPath><clipPath id="at"><rect width="137.856" height="149.755" fill="none"/></clipPath><clipPath id="au"><rect width="137.282" height="148.387" fill="none"/></clipPath><clipPath id="av"><rect width="136.747" height="147.036" fill="none"/></clipPath><clipPath id="aw"><rect width="136.253" height="145.703" fill="none"/></clipPath><clipPath id="ax"><rect width="135.801" height="144.388" fill="none"/></clipPath><clipPath id="ay"><rect width="135.389" height="143.092" fill="none"/></clipPath><clipPath id="az"><rect width="135.016" height="141.815" fill="none"/></clipPath><clipPath id="ba"><rect width="134.684" height="140.557" fill="none"/></clipPath><clipPath id="bb"><path d="M176.111,280.024a75.112,75.112,0,1,0,75.112-75.112,75.111,75.111,0,0,0-75.112,75.112" transform="translate(-176.111 -204.912)" fill="none"/></clipPath><linearGradient id="bc" x1="-0.935" y1="1.374" x2="-0.929" y2="1.374" gradientUnits="objectBoundingBox"><stop offset="0" stop-color="#fff"/><stop offset="1" stop-color="#b9b9b9"/></linearGradient><clipPath id="bd"><path d="M177.868,279.489a72.82,72.82,0,1,0,72.82-72.822,72.821,72.821,0,0,0-72.82,72.822" transform="translate(-177.868 -206.667)" fill="none"/></clipPath><linearGradient id="be" x1="-0.98" y1="1.401" x2="-0.974" y2="1.401" gradientUnits="objectBoundingBox"><stop offset="0" stop-color="#eef1f2"/><stop offset="1" stop-color="#f3f7f7"/></linearGradient></defs><g transform="translate(6580.178 5871.735)"><path d="M358.653,357.769a71.253,71.253,0,0,0-32.159-90.341,66.432,66.432,0,0,0-21.57-7.352,71.4,71.4,0,0,0-11.993-1.039,70.632,70.632,0,0,0-8.3.484C235.9,264.19,158.68,310.46,39.267,463.813c-.014-.4-.027-.823-.027-1.241a24.212,24.212,0,0,1,1.983-9.713l231-400.1A23.912,23.912,0,0,1,303.992,43.5c72.846,179.375,74.708,269.46,54.661,314.273" transform="translate(-6619.418 -5912.548)" fill="#114769"/><path d="M284.1,208.245a71.253,71.253,0,0,0-62.158,73.022,66.449,66.449,0,0,0,4.418,22.356,70.3,70.3,0,0,0,9.665,17.848c28.412,39.875,107.09,83.611,299.6,110.349-.343.214-.7.435-1.061.643a24.207,24.207,0,0,1-9.4,3.139l-461.994,0a23.913,23.913,0,0,1-23.91-22.879C158.179,259.946,235.265,213.291,284.1,208.245" transform="translate(-6619.412 -5861.506)" fill="#79de4f"/><path d="M190.1,372.468a71.255,71.255,0,0,0,94.319,17.319,66.449,66.449,0,0,0,17.151-15,71.3,71.3,0,0,0,6.9-9.866,70.53,70.53,0,0,0,3.728-7.427c20.327-44.544,18.864-134.55-54.237-314.64.358.191.727.389,1.088.6a24.2,24.2,0,0,1,7.421,6.574l230.992,400.1a23.912,23.912,0,0,1-7.859,32.146c-191.765-26.6-270.712-70.033-299.5-109.8" transform="translate(-6573.428 -5911.928)" fill="#1db4f7"/><g transform="translate(-6398.037 -5654.58)" style="mix-blend-mode:multiply;isolation:isolate"><g clip-path="url(#a)"><g opacity="0"><g clip-path="url(#a)"><path d="M343.586,419.644c-43.864,23.52-109.862,4.28-142.2-54.14-32.321-58.4-31.4-126.537,12.437-150.014,43.855-23.5,105.835,4.892,138.168,63.289s35.432,117.387-8.408,140.864" transform="translate(-178.828 -207.235)" fill="#fff"/></g></g><g transform="translate(0.395 0.098)" opacity="0.02"><g clip-path="url(#c)"><path d="M341.657,418.212c-43.732,23.058-109.029,3.578-140.728-54.455-31.687-58.015-30.2-125.434,13.513-148.45,43.723-23.038,105.08,5.413,136.78,63.425s34.144,116.464-9.565,139.481" transform="translate(-179.131 -207.31)" fill="#fbfbfb"/></g></g><g transform="translate(0.782 0.193)" opacity="0.039"><g clip-path="url(#d)"><path d="M339.729,416.78c-43.6,22.6-108.2,2.876-139.26-54.772-31.054-57.63-28.989-124.33,14.59-146.886,43.591-22.578,104.325,5.934,135.39,63.562s32.857,115.539-10.719,138.1" transform="translate(-179.427 -207.383)" fill="#f8f8f8"/></g></g><g transform="translate(1.16 0.286)" opacity="0.059"><g clip-path="url(#e)"><path d="M337.8,415.35c-43.468,22.135-107.362,2.174-137.792-55.088-30.42-57.245-27.78-123.228,15.666-145.324,43.458-22.117,103.57,6.458,134,63.7S381.25,393.254,337.8,415.35" transform="translate(-179.717 -207.454)" fill="#f4f4f4"/></g></g><g transform="translate(1.531 0.377)" opacity="0.078"><g clip-path="url(#f)"><path d="M335.88,413.92c-43.337,21.675-106.528,1.471-136.324-55.405-29.787-56.86-26.573-122.124,16.743-143.759,43.326-21.657,102.816,6.978,132.612,63.836s30.284,113.693-13.03,135.329" transform="translate(-180.001 -207.524)" fill="#f0f0f0"/></g></g><g transform="translate(1.891 0.465)" opacity="0.098"><g clip-path="url(#g)"><path d="M333.958,412.49c-43.2,21.214-105.694.769-134.856-55.722-29.153-56.474-25.365-121.02,17.819-142.2,43.194-21.195,102.06,7.5,131.224,63.974s29,112.769-14.186,133.944" transform="translate(-180.277 -207.591)" fill="#ececec"/></g></g><g transform="translate(2.243 0.549)" opacity="0.118"><g clip-path="url(#h)"><path d="M332.039,411.061c-43.072,20.752-104.86.067-133.39-56.038-28.519-56.089-24.157-119.918,18.9-140.633,43.063-20.734,101.3,8.024,129.835,64.113s27.709,111.844-15.342,132.559" transform="translate(-180.547 -207.656)" fill="#e9e9e9"/></g></g><g transform="translate(2.585 0.633)" opacity="0.137"><g clip-path="url(#i)"><path d="M330.122,409.634C287.182,429.926,226.1,409,198.2,353.279c-27.885-55.7-22.948-118.814,19.972-139.068,42.932-20.275,100.552,8.544,128.447,64.247s26.422,110.921-16.5,131.177" transform="translate(-180.809 -207.72)" fill="#e5e5e5"/></g></g><g transform="translate(2.918 0.712)" opacity="0.157"><g clip-path="url(#j)"><path d="M328.207,408.206c-42.808,19.83-103.193-1.338-130.454-56.671S176.013,233.823,218.8,214.029c42.8-19.813,99.8,9.067,127.059,64.385s25.134,110-17.653,129.792" transform="translate(-181.064 -207.781)" fill="#e1e1e1"/></g></g><g transform="translate(3.24 0.789)" opacity="0.176"><g clip-path="url(#k)"><path d="M326.294,406.779c-42.676,19.369-102.359-2.041-128.986-56.988s-20.533-116.608,22.125-135.942C262.1,194.5,318.475,223.438,345.1,278.371s23.847,109.074-18.808,128.408" transform="translate(-181.311 -207.84)" fill="#ddddde"/></g></g><g transform="translate(3.553 0.864)" opacity="0.196"><g clip-path="url(#l)"><path d="M324.384,405.353c-42.545,18.907-101.525-2.743-127.518-57.3s-19.325-115.505,23.2-134.379c42.536-18.892,98.287,10.11,124.28,64.658s22.56,108.151-19.964,127.025" transform="translate(-181.551 -207.897)" fill="#dadada"/></g></g><g transform="translate(3.855 0.934)" opacity="0.216"><g clip-path="url(#m)"><path d="M322.476,403.928c-42.413,18.447-100.691-3.445-126.05-57.621S178.31,231.905,220.7,213.491c42.4-18.431,97.532,10.633,122.892,64.8s21.272,107.227-21.12,125.64" transform="translate(-181.782 -207.951)" fill="#d6d6d6"/></g></g><g transform="translate(4.146 1.003)" opacity="0.235"><g clip-path="url(#n)"><path d="M320.571,402.5c-42.281,17.986-99.858-4.147-124.583-57.937s-16.908-113.3,25.356-131.252c42.272-17.97,96.777,11.155,121.5,64.933s19.986,106.3-22.275,124.256" transform="translate(-182.005 -208.004)" fill="#d2d2d3"/></g></g><g transform="translate(4.425 1.067)" opacity="0.255"><g clip-path="url(#o)"><path d="M318.668,401.079c-42.149,17.524-99.024-4.85-123.115-58.254s-15.7-112.2,26.432-129.689c42.139-17.508,96.023,11.678,120.114,65.07s18.7,105.38-23.431,122.873" transform="translate(-182.219 -208.053)" fill="#cfcecf"/></g></g><g transform="translate(4.694 1.13)" opacity="0.275"><g clip-path="url(#p)"><path d="M316.769,399.656c-42.018,17.064-98.19-5.552-121.647-58.57S180.628,229.993,222.63,212.96c42.007-17.048,95.267,12.2,118.724,65.207s17.412,104.456-24.586,121.488" transform="translate(-182.425 -208.101)" fill="#cbcbcb"/></g></g><g transform="translate(4.949 1.189)" opacity="0.294"><g clip-path="url(#q)"><path d="M314.871,398.233c-41.886,16.6-97.356-6.254-120.179-58.887s-13.285-109.99,28.584-126.561c41.877-16.589,94.514,12.721,117.337,65.344s16.124,103.532-25.742,120.1" transform="translate(-182.621 -208.146)" fill="#c7c7c7"/></g></g><g transform="translate(5.195 1.244)" opacity="0.314"><g clip-path="url(#r)"><path d="M312.976,396.811c-41.754,16.141-96.522-6.956-118.711-59.2s-12.076-108.887,29.661-125,93.759,13.246,115.949,65.483,14.836,102.608-26.9,118.719" transform="translate(-182.809 -208.188)" fill="#c3c3c4"/></g></g><g transform="translate(5.426 1.294)" opacity="0.333"><g clip-path="url(#s)"><path d="M311.086,395.391c-41.623,15.679-95.69-7.658-117.245-59.519s-10.869-107.783,30.737-123.435,93,13.765,114.559,65.618,13.55,101.684-28.052,117.336" transform="translate(-182.986 -208.227)" fill="#c0bfc0"/></g></g><g transform="translate(5.645 1.343)" opacity="0.353"><g clip-path="url(#t)"><path d="M309.2,393.97c-41.489,15.219-94.855-8.361-115.777-59.835s-9.66-106.681,31.815-121.872,92.249,14.287,113.171,65.755S350.667,378.779,309.2,393.97" transform="translate(-183.154 -208.264)" fill="#bcbcbc"/></g></g><g transform="translate(5.851 1.387)" opacity="0.373"><g clip-path="url(#u)"><path d="M307.311,392.551C265.953,407.309,213.29,383.488,193,332.4s-8.453-105.578,32.891-120.309,91.493,14.81,111.781,65.894,10.975,99.837-30.364,114.567" transform="translate(-183.312 -208.298)" fill="#b8b8b9"/></g></g><g transform="translate(6.044 1.427)" opacity="0.392"><g clip-path="url(#v)"><path d="M305.428,391.133c-41.225,14.3-93.187-9.765-112.841-60.468S185.343,226.19,226.555,211.92s90.739,15.331,110.393,66.029,9.689,98.914-31.52,113.184" transform="translate(-183.46 -208.329)" fill="#b4b4b5"/></g></g><g transform="translate(6.223 1.464)" opacity="0.412"><g clip-path="url(#w)"><path d="M303.549,389.716c-41.094,13.835-92.353-10.467-111.373-60.785S186.14,225.559,227.221,211.75s89.984,15.853,109,66.166,8.4,97.989-32.676,111.8" transform="translate(-183.597 -208.357)" fill="#b1b0b1"/></g></g><g transform="translate(6.387 1.497)" opacity="0.431"><g clip-path="url(#x)"><path d="M301.674,388.3c-40.962,13.373-91.52-11.171-109.9-61.1s-4.829-102.268,36.121-115.618,89.23,16.376,107.615,66.3,7.114,97.065-33.831,110.415" transform="translate(-183.723 -208.382)" fill="#adadad"/></g></g><g transform="translate(6.537 1.524)" opacity="0.451"><g clip-path="url(#y)"><path d="M299.8,386.884c-40.83,12.913-90.686-11.873-108.437-61.418s-3.621-101.165,37.2-114.054,88.475,16.9,106.228,66.44,5.826,96.143-34.987,109.032" transform="translate(-183.838 -208.403)" fill="#a9a9aa"/></g></g><g transform="translate(6.673 1.549)" opacity="0.471"><g clip-path="url(#z)"><path d="M297.933,385.469c-40.7,12.451-89.852-12.575-106.97-61.735s-2.411-100.061,38.274-112.491,87.721,17.42,104.838,66.579,4.54,95.219-36.142,107.648" transform="translate(-183.942 -208.422)" fill="#a6a5a6"/></g></g><g transform="translate(6.793 1.568)" opacity="0.49"><g clip-path="url(#aa)"><path d="M296.067,384.056c-40.567,11.99-89.018-13.277-105.5-62.051s-1.2-98.96,39.35-110.928,86.966,17.942,103.45,66.716,3.252,94.295-37.3,106.263" transform="translate(-184.034 -208.437)" fill="#a2a1a2"/></g></g><g transform="translate(6.897 1.583)" opacity="0.51"><g clip-path="url(#ab)"><path d="M294.205,382.644c-40.435,11.53-88.184-13.979-104.034-62.368s0-97.856,40.427-109.363,86.212,18.464,102.06,66.851,1.965,93.371-38.453,104.88" transform="translate(-184.114 -208.448)" fill="#9e9e9f"/></g></g><g transform="translate(6.986 1.593)" opacity="0.529"><g clip-path="url(#ac)"><path d="M292.347,381.233C252.045,392.3,205,366.55,189.781,318.549s1.211-96.753,41.5-107.8,85.456,18.986,100.672,66.99.677,92.447-39.609,103.5" transform="translate(-184.182 -208.456)" fill="#9a9a9b"/></g></g><g transform="translate(7.059 1.6)" opacity="0.549"><g clip-path="url(#ad)"><path d="M290.493,379.822c-40.171,10.607-86.517-15.384-101.1-63s2.419-95.649,42.58-106.237,84.7,19.508,99.283,67.127-.611,91.524-40.765,102.111" transform="translate(-184.238 -208.461)" fill="#979697"/></g></g><g transform="translate(7.117 1.6)" opacity="0.569"><g clip-path="url(#ae)"><path d="M288.643,378.413C248.6,388.558,202.96,362.326,189.012,315.1s3.627-94.547,43.656-104.674,83.946,20.029,97.894,67.262-1.9,90.6-41.92,100.728" transform="translate(-184.282 -208.461)" fill="#939294"/></g></g><g transform="translate(7.156 1.596)" opacity="0.588"><g clip-path="url(#af)"><path d="M286.8,377.006c-39.906,9.685-84.849-16.788-98.164-63.634s4.836-93.443,44.734-103.111,83.192,20.551,96.505,67.4-3.184,89.676-43.076,99.343" transform="translate(-184.312 -208.458)" fill="#8f8f90"/></g></g><g transform="translate(7.179 1.585)" opacity="0.608"><g clip-path="url(#ag)"><path d="M284.954,375.6c-39.775,9.224-84.015-17.492-96.7-63.949s6.044-92.34,45.809-101.547,82.438,21.073,95.117,67.538-4.47,88.752-44.231,97.959" transform="translate(-184.33 -208.45)" fill="#8c8b8c"/></g></g><g transform="translate(7.185 1.571)" opacity="0.627"><g clip-path="url(#ah)"><path d="M283.115,374.193c-39.643,8.762-83.182-18.194-95.228-64.267s7.252-91.238,46.886-99.984,81.682,21.6,93.729,67.675-5.758,87.83-45.387,96.576" transform="translate(-184.334 -208.439)" fill="#888788"/></g></g><g transform="translate(7.173 1.55)" opacity="0.647"><g clip-path="url(#ai)"><path d="M281.281,372.79c-39.511,8.3-82.349-18.9-93.76-64.582s8.459-90.135,47.962-98.421,80.928,22.119,92.34,67.812-7.046,86.906-46.543,95.191" transform="translate(-184.325 -208.423)" fill="#848385"/></g></g><g transform="translate(7.143 1.524)" opacity="0.667"><g clip-path="url(#aj)"><path d="M279.449,371.387c-39.379,7.84-81.515-19.6-92.292-64.9s9.668-89.031,49.039-96.857,80.173,22.639,90.951,67.949c10.778,45.294-8.333,85.982-47.7,93.807" transform="translate(-184.302 -208.403)" fill="#808081"/></g></g><g transform="translate(7.094 1.491)" opacity="0.686"><g clip-path="url(#ak)"><path d="M277.624,369.985c-39.249,7.379-80.683-20.3-90.825-65.215s10.875-87.929,50.115-95.295,79.418,23.162,89.562,68.086-9.621,85.058-48.852,92.424" transform="translate(-184.265 -208.378)" fill="#7d7c7d"/></g></g><g transform="translate(7.028 1.454)" opacity="0.706"><g clip-path="url(#al)"><path d="M275.8,368.586c-39.116,6.917-79.848-21-89.357-65.532s12.084-86.825,51.193-93.73,78.663,23.684,88.173,68.223S314.9,361.681,275.8,368.586" transform="translate(-184.214 -208.349)" fill="#79787a"/></g></g><g transform="translate(6.943 1.409)" opacity="0.725"><g clip-path="url(#am)"><path d="M273.984,367.187c-38.984,6.456-79.014-21.7-87.889-65.848s13.292-85.722,52.27-92.167,77.909,24.2,86.784,68.36c8.876,44.138-12.194,83.21-51.165,89.655" transform="translate(-184.149 -208.315)" fill="#757476"/></g></g><g transform="translate(6.84 1.357)" opacity="0.745"><g clip-path="url(#an)"><path d="M272.171,365.79c-38.852,6-78.18-22.407-86.422-66.165s14.5-84.62,53.346-90.6,77.153,24.728,85.4,68.5c8.241,43.753-13.482,82.288-52.321,88.272" transform="translate(-184.07 -208.275)" fill="#717172"/></g></g><g transform="translate(6.717 1.3)" opacity="0.765"><g clip-path="url(#ao)"><path d="M270.362,364.394c-38.72,5.535-77.346-23.108-84.954-66.48s15.708-83.518,54.421-89.04,76.4,25.25,84.008,68.634c7.607,43.368-14.768,81.364-53.475,86.886" transform="translate(-183.976 -208.231)" fill="#6e6d6e"/></g></g><g transform="translate(6.575 1.234)" opacity="0.784"><g clip-path="url(#ap)"><path d="M268.558,363c-38.588,5.073-76.513-23.811-83.486-66.8s16.915-82.413,55.5-87.477S316.215,234.5,323.19,277.5c6.973,42.982-16.056,80.439-54.632,85.5" transform="translate(-183.867 -208.181)" fill="#6a696b"/></g></g><g transform="translate(6.413 1.163)" opacity="0.804"><g clip-path="url(#aq)"><path d="M266.759,361.609c-38.457,4.611-75.679-24.514-82.018-67.115s18.123-81.309,56.574-85.913,74.891,26.294,81.23,68.908c6.34,42.6-17.343,79.516-55.786,84.12" transform="translate(-183.743 -208.126)" fill="#666567"/></g></g><g transform="translate(6.233 1.084)" opacity="0.824"><g clip-path="url(#ar)"><path d="M264.964,360.218c-38.323,4.151-74.845-25.216-80.551-67.431-5.7-42.23,19.333-80.207,57.652-84.349s74.135,26.816,79.841,69.045c5.706,42.212-18.631,78.592-56.942,82.735" transform="translate(-183.605 -208.066)" fill="#636263"/></g></g><g transform="translate(6.034 0.997)" opacity="0.843"><g clip-path="url(#as)"><path d="M263.173,358.831c-38.192,3.689-74.011-25.918-79.083-67.748s20.54-79.1,58.729-82.786,73.381,27.339,78.452,69.183c5.072,41.826-19.917,77.669-58.1,81.351" transform="translate(-183.452 -207.999)" fill="#5f5e60"/></g></g><g transform="translate(5.813 0.903)" opacity="0.863"><g clip-path="url(#at)"><path d="M261.387,357.443c-38.06,3.228-73.177-26.62-77.615-68.064-4.436-41.46,21.748-78,59.805-81.223s72.625,27.86,77.063,69.319c4.438,41.441-21.205,76.746-59.253,79.968" transform="translate(-183.283 -207.927)" fill="#5b5a5c"/></g></g><g transform="translate(5.573 0.8)" opacity="0.882"><g clip-path="url(#au)"><path d="M259.606,356.058c-37.928,2.768-72.344-27.324-76.147-68.381-3.8-41.074,22.956-76.9,60.882-79.659s71.87,28.382,75.675,69.456c3.8,41.054-22.493,75.821-60.409,78.583" transform="translate(-183.099 -207.848)" fill="#575658"/></g></g><g transform="translate(5.313 0.689)" opacity="0.902"><g clip-path="url(#av)"><path d="M257.83,354.676c-37.8,2.306-71.51-28.026-74.679-68.7-3.169-40.69,24.163-75.795,61.958-78.1s71.116,28.905,74.285,69.594c3.171,40.67-23.778,74.9-61.564,77.2" transform="translate(-182.9 -207.763)" fill="#545355"/></g></g><g transform="translate(5.034 0.569)" opacity="0.922"><g clip-path="url(#aw)"><path d="M256.058,353.295c-37.665,1.845-70.676-28.728-73.211-69.014-2.535-40.3,25.372-74.691,63.033-76.532s70.361,29.426,72.9,69.73c2.535,40.285-25.066,73.975-62.72,75.816" transform="translate(-182.686 -207.671)" fill="#504f51"/></g></g><g transform="translate(4.734 0.441)" opacity="0.941"><g clip-path="url(#ax)"><path d="M254.291,351.916c-37.533,1.383-69.842-29.43-71.745-69.329-1.9-39.919,26.58-73.588,64.111-74.969s69.607,29.948,71.508,69.867c1.9,39.9-26.353,73.051-63.875,74.431" transform="translate(-182.456 -207.573)" fill="#4c4b4d"/></g></g><g transform="translate(4.414 0.303)" opacity="0.961"><g clip-path="url(#ay)"><path d="M252.528,350.539c-37.4.923-69.008-30.132-70.277-69.646-1.267-39.533,27.788-72.484,65.188-73.406s68.852,30.472,70.12,70.007c1.268,39.512-27.641,72.126-65.031,73.046" transform="translate(-182.211 -207.467)" fill="#484749"/></g></g><g transform="translate(4.075 0.157)" opacity="0.98"><g clip-path="url(#az)"><path d="M250.77,349.165c-37.269.461-68.175-30.835-68.809-69.962-.634-39.149,29-71.382,66.264-71.842s68.1,30.992,68.732,70.142c.633,39.127-28.929,71.2-66.187,71.662" transform="translate(-181.951 -207.355)" fill="#454446"/></g></g><g transform="translate(3.715)"><g clip-path="url(#ba)"><path d="M249.017,347.793c-37.137,0-67.341-31.537-67.341-70.279,0-38.764,30.2-70.279,67.341-70.279s67.342,31.515,67.342,70.279c0,38.742-30.215,70.279-67.342,70.279" transform="translate(-181.675 -207.235)" fill="#414042"/></g></g></g></g><g transform="translate(-6401.582 -5657.611)"><g clip-path="url(#bb)"><rect width="212.448" height="212.448" transform="translate(-75.111 75.111) rotate(-45)" fill="url(#bc)"/></g></g><g transform="translate(-6399.289 -5655.321)"><g clip-path="url(#bd)"><rect width="205.969" height="205.969" transform="translate(-72.822 72.822) rotate(-45)" fill="url(#be)"/></g></g><path d="M339.864,294.594H313.951a5.437,5.437,0,0,1-5.432-5.432V263.248a5.438,5.438,0,0,1,5.432-5.433h25.913a5.439,5.439,0,0,1,5.432,5.433v25.913a5.437,5.437,0,0,1-5.432,5.432m-25.913-35.214a3.873,3.873,0,0,0-3.868,3.869v25.913a3.873,3.873,0,0,0,3.868,3.868h25.913a3.873,3.873,0,0,0,3.868-3.868V263.248a3.873,3.873,0,0,0-3.868-3.869Z" transform="translate(-6537.328 -5846.396)" fill="#fff"/><path d="M361.987,316.717H336.074a5.44,5.44,0,0,1-5.433-5.433V287.067a.782.782,0,0,1,1.565,0v24.217a3.873,3.873,0,0,0,3.869,3.869h25.913a3.873,3.873,0,0,0,3.868-3.869V285.372a3.873,3.873,0,0,0-3.868-3.869H337.769a.783.783,0,0,1,0-1.566h24.218a5.44,5.44,0,0,1,5.432,5.435v25.912a5.438,5.438,0,0,1-5.432,5.433" transform="translate(-6530.584 -5839.651)" fill="#fff"/><path d="M343.245,268.99a.781.781,0,0,1-.713-.461l-1.808-3.99a.782.782,0,0,1,.39-1.035l3.992-1.809a.782.782,0,1,1,.645,1.425l-3.278,1.486,1.485,3.278a.781.781,0,0,1-.39,1.035.764.764,0,0,1-.322.07" transform="translate(-6527.532 -5845.234)" fill="#fff"/><path d="M356.8,279.944a.782.782,0,0,1-.779-.725,15.865,15.865,0,0,0-14.643-14.643.783.783,0,0,1-.723-.838.791.791,0,0,1,.838-.723A17.429,17.429,0,0,1,357.583,279.1a.78.78,0,0,1-.723.838.429.429,0,0,1-.059,0" transform="translate(-6527.532 -5844.812)" fill="#fff"/><path d="M354.146,277.287a.777.777,0,0,1-.324-.07l-3.993-1.809a.782.782,0,0,1,.647-1.425l3.279,1.485,1.486-3.278a.782.782,0,1,1,1.425.645l-1.808,3.992a.786.786,0,0,1-.437.411.8.8,0,0,1-.275.05" transform="translate(-6524.874 -5842.154)" fill="#fff"/><path d="M312.949,294.523a.765.765,0,0,1-.322-.07.78.78,0,0,1-.39-1.035l1.808-3.99a.778.778,0,0,1,1.035-.39l3.99,1.809a.781.781,0,1,1-.645,1.424l-3.278-1.484-1.486,3.276a.781.781,0,0,1-.712.461" transform="translate(-6536.216 -5836.898)" fill="#fff"/><path d="M329.7,305.9a.43.43,0,0,1-.059,0,17.429,17.429,0,0,1-16.089-16.089.782.782,0,1,1,1.559-.115,15.87,15.87,0,0,0,14.644,14.644.782.782,0,0,1-.056,1.562" transform="translate(-6535.794 -5836.899)" fill="#fff"/><path d="M323.053,305.05a.783.783,0,0,1-.322-1.5l3.278-1.485-1.485-3.279a.782.782,0,0,1,1.425-.645l1.807,3.992a.782.782,0,0,1-.389,1.035l-3.992,1.807a.765.765,0,0,1-.322.07" transform="translate(-6533.136 -5834.241)" fill="#fff"/><path d="M325.743,284.356a.784.784,0,0,1-.783-.783v-8.025a.783.783,0,0,1,1.566,0v8.025a.783.783,0,0,1-.783.783" transform="translate(-6532.316 -5841.228)" fill="#fff"/><path d="M328.04,284.356h-9.831a.783.783,0,0,1-.783-.783v-8.025a.782.782,0,1,1,1.564,0v7.243h9.049a.782.782,0,1,1,0,1.565" transform="translate(-6534.613 -5841.228)" fill="#fff"/><path d="M323.092,271.334a5.346,5.346,0,1,1,5.347-5.347,5.352,5.352,0,0,1-5.347,5.347m0-9.127a3.781,3.781,0,1,0,3.781,3.78,3.784,3.784,0,0,0-3.781-3.78" transform="translate(-6534.515 -5845.534)" fill="#fff"/><path d="M315.368,285.868a.783.783,0,0,1-.783-.783V273.556a3.756,3.756,0,0,1,3.751-3.751h11.437a3.756,3.756,0,0,1,3.751,3.751v10.415a.782.782,0,0,1-1.565,0V273.556a2.189,2.189,0,0,0-2.187-2.186H318.336a2.189,2.189,0,0,0-2.186,2.186v11.528a.784.784,0,0,1-.783.783" transform="translate(-6535.479 -5842.74)" fill="#fff"/><path d="M322.026,276.659a.784.784,0,0,1-.783-.783v-5.289a.783.783,0,1,1,1.566,0v5.289a.784.784,0,0,1-.783.783" transform="translate(-6533.449 -5842.74)" fill="#fff"/><path d="M348.631,307.246a.784.784,0,0,1-.783-.783v-8.026a.783.783,0,1,1,1.566,0v8.026a.783.783,0,0,1-.783.783" transform="translate(-6525.338 -5834.25)" fill="#fff"/><path d="M350.928,307.246H341.1a.784.784,0,0,1-.783-.783v-8.026a.782.782,0,1,1,1.565,0v7.245h9.049a.782.782,0,1,1,0,1.564" transform="translate(-6527.636 -5834.25)" fill="#fff"/><path d="M345.98,294.222a5.346,5.346,0,1,1,5.347-5.347,5.352,5.352,0,0,1-5.347,5.347m0-9.127a3.781,3.781,0,1,0,3.781,3.78,3.784,3.784,0,0,0-3.781-3.78" transform="translate(-6527.539 -5838.556)" fill="#fff"/><path d="M338.257,308.758a.784.784,0,0,1-.783-.783v-11.53a3.756,3.756,0,0,1,3.751-3.751h11.437a3.756,3.756,0,0,1,3.751,3.751v10.415a.782.782,0,1,1-1.565,0V296.445a2.189,2.189,0,0,0-2.187-2.186H341.225a2.189,2.189,0,0,0-2.186,2.186v11.53a.784.784,0,0,1-.783.783" transform="translate(-6528.501 -5835.763)" fill="#fff"/><path d="M344.914,299.548a.783.783,0,0,1-.783-.783v-5.289a.783.783,0,1,1,1.566,0v5.289a.784.784,0,0,1-.783.783" transform="translate(-6526.472 -5835.763)" fill="#fff"/><path d="M335.973,281.676V262.333a1.519,1.519,0,0,0-1.52-1.519h-8.181l2.162,1.417a10.279,10.279,0,0,1,4.358,6.2Z" transform="translate(-6531.917 -5845.481)" fill="#ffc524"/><path d="M358.179,303.765V284.422a1.519,1.519,0,0,0-1.52-1.519h-8.181l2.162,1.417a10.279,10.279,0,0,1,4.358,6.2Z" transform="translate(-6525.147 -5838.747)" fill="#79de4f"/><path d="M232.66,150.962a.786.786,0,0,1-.553-.228l-4.4-4.4a.784.784,0,0,1,0-1.108l1.722-1.722a3.224,3.224,0,0,1,4.554,0,.783.783,0,0,1-1.107,1.108,1.656,1.656,0,0,0-2.34,0l-1.17,1.169,3.848,3.848a.782.782,0,0,1-.553,1.336" transform="translate(-6562.035 -5881.531)" fill="#fff"/><path d="M251.153,157.267a.784.784,0,0,1-.71-.451c0-.01-.27-.581-.937-1.88a47.662,47.662,0,0,0-7.854-11.056.782.782,0,1,1,1.134-1.078,49.245,49.245,0,0,1,8.114,11.42c.69,1.348.963,1.932.963,1.932a.783.783,0,0,1-.71,1.113" transform="translate(-6557.778 -5881.531)" fill="#fff"/><path d="M245.194,165.538a.77.77,0,0,1-.433-.132,16.753,16.753,0,0,0-7.491-2.4,19.355,19.355,0,0,1-3.637-.574,16.977,16.977,0,0,1-7.849-4.481A3.672,3.672,0,0,1,229.873,152l4.28,1.9a.782.782,0,0,1-.635,1.43l-4.28-1.905a2.116,2.116,0,0,0-2.345.436,2.108,2.108,0,0,0,0,2.98,15.4,15.4,0,0,0,7.123,4.071,17.924,17.924,0,0,0,3.34.53,18.015,18.015,0,0,1,8.275,2.658.782.782,0,0,1-.437,1.431" transform="translate(-6562.877 -5878.748)" fill="#fff"/><path d="M229.531,153.351a.786.786,0,0,1-.553-.228l-7.255-7.255a3.22,3.22,0,1,1,4.553-4.554l4.579,4.577A.783.783,0,1,1,229.746,147l-4.577-4.577a1.654,1.654,0,1,0-2.34,2.338l7.255,7.255a.782.782,0,0,1-.553,1.336" transform="translate(-6564.075 -5882.198)" fill="#fff"/><path d="M236.288,149.307a.786.786,0,0,1-.553-.228l-4.4-4.4a.784.784,0,0,1,0-1.108l1.722-1.722a3.222,3.222,0,0,1,4.554,0l4.172,4.173a.782.782,0,0,1-1.107,1.105l-4.172-4.173a1.657,1.657,0,0,0-2.34,0l-1.17,1.169,3.848,3.848a.782.782,0,0,1-.553,1.336" transform="translate(-6560.928 -5882.035)" fill="#fff"/><path d="M244.061,144.907a.782.782,0,0,1-.553-.23L240.83,142a1.659,1.659,0,0,0-2.341,0l-1.722,1.724a.782.782,0,0,1-1.105-1.108l1.722-1.722a3.221,3.221,0,0,1,4.553,0l2.678,2.679a.782.782,0,0,1-.553,1.335" transform="translate(-6559.609 -5882.326)" fill="#fff"/><path d="M245.347,172.712a.786.786,0,0,1-.561-.236l-3.733-3.827a.782.782,0,0,1,.008-1.1l13.36-13.36a.743.743,0,0,1,.558-.23.786.786,0,0,1,.556.236l3.733,3.827a.783.783,0,0,1-1.121,1.093l-3.18-3.259L242.713,168.11l3.2,3.273a.783.783,0,0,1-.561,1.33" transform="translate(-6557.963 -5878.056)" fill="#fff"/><path d="M251.719,160.409a1.251,1.251,0,0,1-.885-2.135,1.254,1.254,0,0,1,1.768,0h0a1.251,1.251,0,0,1-.882,2.133Zm.223-1.473-.446.446a.316.316,0,0,0,.446-.446m-.223-.093a.426.426,0,0,0-.227.1.314.314,0,0,0,0,.442l.448-.445h0a.324.324,0,0,0-.223-.091" transform="translate(-6555.025 -5876.851)" fill="#fff"/><path d="M224.857,136a6.326,6.326,0,1,1,6.326-6.327A6.334,6.334,0,0,1,224.857,136m0-11.087a4.761,4.761,0,1,0,4.76,4.76,4.767,4.767,0,0,0-4.76-4.76" transform="translate(-6564.761 -5887.387)" fill="#fff"/><path d="M215.475,153.657a.783.783,0,0,1-.783-.783v-14a4.393,4.393,0,0,1,4.388-4.387h13.893a4.392,4.392,0,0,1,4.388,4.387.782.782,0,1,1-1.565,0,2.827,2.827,0,0,0-2.824-2.822H219.08a2.826,2.826,0,0,0-2.822,2.822v14a.783.783,0,0,1-.783.783" transform="translate(-6565.932 -5883.994)" fill="#fff"/><path d="M223.562,139.964a.784.784,0,0,1-.783-.783v-3.917a.783.783,0,0,1,1.566,0v3.917a.784.784,0,0,1-.783.783" transform="translate(-6563.466 -5883.994)" fill="#fff"/><path d="M226.373,169.189a.862.862,0,0,1-.1-.005,26.857,26.857,0,1,1,30.236-26.646,27.206,27.206,0,0,1-.36,4.414.783.783,0,1,1-1.545-.256,25.293,25.293,0,1,0-28.135,20.934.783.783,0,0,1-.1,1.559" transform="translate(-6569.558 -5889.725)" fill="#fff"/><path d="M205.8,141.527a22.99,22.99,0,0,0,11.3,19.772,29.246,29.246,0,0,1-5.941-17.4c0-9.651,5.043-18.418,13.264-24.9a22.978,22.978,0,0,0-18.622,22.53" transform="translate(-6568.643 -5888.714)" fill="#1db4f7"/><path d="M140.037,319.813H138.5a4.374,4.374,0,0,1-4.369-4.369.782.782,0,0,1,1.565,0,2.807,2.807,0,0,0,2.8,2.8h1.535a2.807,2.807,0,0,0,2.8-2.8l-.051-2.531a5.464,5.464,0,0,1,1.579-3.89,7.242,7.242,0,0,0-5.613-12.367,7.241,7.241,0,0,0-4.648,12.3,5.612,5.612,0,0,1,1.589,3.15h3.574a.782.782,0,0,1,0,1.565h-4.3a.784.784,0,0,1-.783-.783,4.021,4.021,0,0,0-1.193-2.834,8.808,8.808,0,1,1,12.478.077,3.855,3.855,0,0,0-1.117,2.727l.051,2.582a4.373,4.373,0,0,1-4.367,4.369" transform="translate(-6591.609 -5835.037)" fill="#fff"/><path d="M151.329,302.509h-4.68a.782.782,0,1,1,0-1.565h4.68a.782.782,0,1,1,0,1.565" transform="translate(-6586.913 -5833.248)" fill="#fff"/><path d="M150.929,307.567a.783.783,0,0,1-.361-.086l-4.28-2.231a.784.784,0,0,1,.724-1.39l4.28,2.231a.782.782,0,0,1-.363,1.476" transform="translate(-6586.913 -5832.386)" fill="#fff"/><path d="M146.65,300.2a.783.783,0,0,1-.363-1.477l4.28-2.231a.784.784,0,0,1,.724,1.39l-4.28,2.231a.784.784,0,0,1-.361.087" transform="translate(-6586.913 -5834.631)" fill="#fff"/><path d="M129.018,302.509h-4.681a.782.782,0,1,1,0-1.565h4.681a.782.782,0,1,1,0,1.565" transform="translate(-6593.715 -5833.248)" fill="#fff"/><path d="M124.645,307.567a.782.782,0,0,1-.363-1.476l4.28-2.231a.784.784,0,0,1,.724,1.39l-4.28,2.231a.783.783,0,0,1-.361.086" transform="translate(-6593.621 -5832.386)" fill="#fff"/><path d="M128.924,300.2a.784.784,0,0,1-.361-.087l-4.28-2.231a.784.784,0,0,1,.724-1.39l4.28,2.231a.783.783,0,0,1-.363,1.477" transform="translate(-6593.621 -5834.631)" fill="#fff"/><path d="M158.784,325H139.794a.782.782,0,0,1,0-1.565h18.991a3.325,3.325,0,0,0,3.321-3.321V319.1H139.794a.783.783,0,0,1,0-1.566h23.093a.782.782,0,0,1,.782.783v1.8A4.891,4.891,0,0,1,158.784,325" transform="translate(-6589.002 -5828.191)" fill="#fff"/><path d="M140.391,325H121.4a4.891,4.891,0,0,1-4.885-4.885v-1.8a.783.783,0,0,1,.783-.783h23.093a.783.783,0,1,1,0,1.566H118.08v1.016a3.325,3.325,0,0,0,3.321,3.321h18.991a.782.782,0,1,1,0,1.565" transform="translate(-6595.861 -5828.191)" fill="#fff"/><path d="M165.33,326.72a.784.784,0,0,1-.783-.783V294.851a.762.762,0,0,0-.761-.761h-42.2a.762.762,0,0,0-.761.761v31.085a.783.783,0,0,1-1.566,0V294.851a2.329,2.329,0,0,1,2.327-2.325h42.2a2.329,2.329,0,0,1,2.327,2.325v31.085a.784.784,0,0,1-.783.783" transform="translate(-6595.025 -5835.813)" fill="#fff"/><path d="M120.243,339.631a.784.784,0,0,1-.783-.783v-3.954a4.6,4.6,0,0,1,4.6-4.594h14.755a3.034,3.034,0,0,0,3.031-3.031v-4.431a.782.782,0,1,1,1.565,0v4.431a4.6,4.6,0,0,1-4.6,4.6H124.056a3.034,3.034,0,0,0-3.03,3.03v3.954a.783.783,0,0,1-.783.783" transform="translate(-6594.963 -5826.812)" fill="#fff"/><path d="M159.775,342.442a.783.783,0,0,1-.783-.783v-3.954a3.034,3.034,0,0,0-3.03-3.03H141.207a4.6,4.6,0,0,1-4.594-4.6V313.616a.782.782,0,0,1,1.564,0V330.08a3.034,3.034,0,0,0,3.03,3.031h14.755a4.6,4.6,0,0,1,4.6,4.594v3.954a.784.784,0,0,1-.783.783" transform="translate(-6589.734 -5829.623)" fill="#fff"/><path d="M148.142,337.581H143.76a1.632,1.632,0,0,0-1.632,1.634v4.379a1.632,1.632,0,0,0,1.632,1.634h4.38a1.633,1.633,0,0,0,1.634-1.634v-4.38a1.632,1.632,0,0,0-1.632-1.632" transform="translate(-6588.053 -5822.079)" fill="#35b4cf"/><path d="M157.448,337.581h-4.382a1.632,1.632,0,0,0-1.632,1.634v4.379a1.632,1.632,0,0,0,1.632,1.634h4.38a1.633,1.633,0,0,0,1.634-1.634v-4.38a1.632,1.632,0,0,0-1.632-1.632" transform="translate(-6585.216 -5822.079)" fill="#ffc524"/><path d="M123.143,337.581h-4.38a1.634,1.634,0,0,0-1.634,1.634v4.379a1.634,1.634,0,0,0,1.634,1.634h4.38a1.632,1.632,0,0,0,1.632-1.634v-4.38a1.632,1.632,0,0,0-1.632-1.632" transform="translate(-6595.674 -5822.079)" fill="#35b4cf"/><path d="M132.449,337.581h-4.38a1.634,1.634,0,0,0-1.634,1.634v4.379a1.634,1.634,0,0,0,1.634,1.634h4.38a1.632,1.632,0,0,0,1.632-1.634v-4.38a1.632,1.632,0,0,0-1.632-1.632" transform="translate(-6592.837 -5822.079)" fill="#ffc524"/><path d="M137.27,301.083a7.454,7.454,0,0,1,4.973,2.444,8.041,8.041,0,0,1,.736.958,4.918,4.918,0,0,0,.241-1.518,4.9,4.9,0,0,0-4.9-4.9c-.117,0-.235.005-.354.012a4.913,4.913,0,0,0-4.408,3.758,7.675,7.675,0,0,1,3.707-.758" transform="translate(-6590.664 -5834.123)" fill="#ffc524"/><path d="M145.241,337.705a.784.784,0,0,1-.783-.783v-7.766a.783.783,0,0,1,1.566,0v7.766a.784.784,0,0,1-.783.783" transform="translate(-6587.342 -5824.885)" fill="#fff"/><path d="M129.548,337.705a.784.784,0,0,1-.783-.783v-7.766a.783.783,0,0,1,1.566,0v7.766a.784.784,0,0,1-.783.783" transform="translate(-6592.127 -5824.885)" fill="#fff"/><path d="M238.612,268.274H231v16.977h-9.557V238.868h17.234q8.219,0,12.679,3.664t4.46,10.354a14.263,14.263,0,0,1-2.055,7.915,14,14,0,0,1-6.228,5.051l10.034,18.954v.445H247.308ZM231,260.531h7.709a7.888,7.888,0,0,0,5.576-1.832,6.552,6.552,0,0,0,1.974-5.048,7,7,0,0,0-1.862-5.161q-1.865-1.877-5.719-1.88H231Z" transform="translate(-6563.874 -5852.171)" fill="#606060"/><path d="M104.138,362.6v6.537h-3.823V350.584h7.238a8.371,8.371,0,0,1,3.677.765,5.634,5.634,0,0,1,2.44,2.173,6.062,6.062,0,0,1,.853,3.2,5.325,5.325,0,0,1-1.867,4.3,7.774,7.774,0,0,1-5.167,1.574Zm0-3.1h3.415a3.363,3.363,0,0,0,2.313-.714,2.6,2.6,0,0,0,.8-2.038,3.063,3.063,0,0,0-.8-2.205,3,3,0,0,0-2.217-.866h-3.5Z" transform="translate(-6600.799 -5818.115)" fill="#114769"/><path d="M120.778,357.749a10.022,10.022,0,0,0-1.326-.1,2.7,2.7,0,0,0-2.739,1.414v9.022h-3.682V354.3h3.479l.1,1.643a3.414,3.414,0,0,1,3.07-1.9,3.839,3.839,0,0,1,1.147.166Z" transform="translate(-6596.923 -5817.061)" fill="#114769"/><path d="M119.534,361.062a8.172,8.172,0,0,1,.789-3.658,5.79,5.79,0,0,1,2.274-2.484,6.645,6.645,0,0,1,3.447-.879,6.275,6.275,0,0,1,4.555,1.708,6.848,6.848,0,0,1,1.969,4.637l.025.943a7.2,7.2,0,0,1-1.771,5.09,6.864,6.864,0,0,1-9.512.006,7.333,7.333,0,0,1-1.777-5.2Zm3.682.261a5.165,5.165,0,0,0,.739,3.006,2.655,2.655,0,0,0,4.206.012,5.639,5.639,0,0,0,.752-3.286,5.106,5.106,0,0,0-.752-2.987,2.444,2.444,0,0,0-2.115-1.06,2.406,2.406,0,0,0-2.09,1.053,5.742,5.742,0,0,0-.739,3.261" transform="translate(-6594.94 -5817.061)" fill="#114769"/><path d="M136.605,362.811l2.548-8.576h3.95l-5.543,15.928-.305.726a4.2,4.2,0,0,1-4.078,2.7,5.781,5.781,0,0,1-1.631-.243v-2.791l.561.013a3.029,3.029,0,0,0,1.561-.318,2.089,2.089,0,0,0,.809-1.057l.433-1.135-4.829-13.825h3.963Z" transform="translate(-6591.725 -5817.001)" fill="#114769"/><path d="M147.51,368.338a6.771,6.771,0,0,1-4.938-1.861,6.614,6.614,0,0,1-1.905-4.957v-.356a8.332,8.332,0,0,1,.8-3.715,5.9,5.9,0,0,1,2.276-2.524,6.384,6.384,0,0,1,3.357-.885,5.724,5.724,0,0,1,4.453,1.784,7.249,7.249,0,0,1,1.625,5.059v1.5H144.4a3.425,3.425,0,0,0,1.078,2.166,3.252,3.252,0,0,0,2.274.816,3.974,3.974,0,0,0,3.326-1.541l1.809,2.025a5.528,5.528,0,0,1-2.242,1.829,7.37,7.37,0,0,1-3.136.656m-.42-11.329a2.3,2.3,0,0,0-1.777.742,3.839,3.839,0,0,0-.873,2.124h5.123v-.294a2.751,2.751,0,0,0-.663-1.9,2.377,2.377,0,0,0-1.81-.672" transform="translate(-6588.498 -5817.061)" fill="#114769"/><path d="M157.727,365.369a2.421,2.421,0,0,0,1.657-.561,1.964,1.964,0,0,0,.662-1.49H163.5a4.733,4.733,0,0,1-.765,2.568,5.052,5.052,0,0,1-2.058,1.809,6.442,6.442,0,0,1-2.886.643,5.986,5.986,0,0,1-4.664-1.879,7.435,7.435,0,0,1-1.708-5.193v-.242a7.353,7.353,0,0,1,1.7-5.085,5.92,5.92,0,0,1,4.65-1.9,5.8,5.8,0,0,1,4.148,1.472,5.214,5.214,0,0,1,1.587,3.918h-3.454a2.533,2.533,0,0,0-.662-1.748,2.464,2.464,0,0,0-3.626.266,5.437,5.437,0,0,0-.656,3.044v.381a5.506,5.506,0,0,0,.65,3.064,2.247,2.247,0,0,0,1.976.932" transform="translate(-6585.22 -5817.061)" fill="#114769"/><path d="M167,351.638v3.39h2.358v2.7H167v6.88a1.64,1.64,0,0,0,.294,1.1,1.473,1.473,0,0,0,1.121.331,5.829,5.829,0,0,0,1.083-.089v2.79a7.592,7.592,0,0,1-2.23.331q-3.873,0-3.95-3.912v-7.428H161.3v-2.7h2.013v-3.39Z" transform="translate(-6582.208 -5817.793)" fill="#114769"/><path d="M168.314,361.062a8.171,8.171,0,0,1,.789-3.658,5.79,5.79,0,0,1,2.274-2.484,6.645,6.645,0,0,1,3.447-.879,6.275,6.275,0,0,1,4.555,1.708,6.848,6.848,0,0,1,1.969,4.637l.025.943a7.2,7.2,0,0,1-1.771,5.09,6.864,6.864,0,0,1-9.512.006,7.333,7.333,0,0,1-1.777-5.2Zm3.682.261a5.165,5.165,0,0,0,.739,3.006,2.655,2.655,0,0,0,4.206.012,5.639,5.639,0,0,0,.752-3.286,5.106,5.106,0,0,0-.752-2.987,2.444,2.444,0,0,0-2.115-1.06,2.406,2.406,0,0,0-2.09,1.053,5.742,5.742,0,0,0-.739,3.261" transform="translate(-6580.07 -5817.061)" fill="#114769"/><path d="M303.554,335.857a1.957,1.957,0,0,0-.765-1.662,10.056,10.056,0,0,0-2.752-1.224,19.367,19.367,0,0,1-3.147-1.268q-3.161-1.707-3.16-4.6a4.489,4.489,0,0,1,.847-2.683,5.545,5.545,0,0,1,2.434-1.841,9.155,9.155,0,0,1,3.562-.663,8.338,8.338,0,0,1,3.543.72,5.629,5.629,0,0,1,2.414,2.033,5.313,5.313,0,0,1,.86,2.982h-3.822a2.505,2.505,0,0,0-.8-1.982,3.306,3.306,0,0,0-2.256-.707,3.535,3.535,0,0,0-2.179.592,1.875,1.875,0,0,0-.778,1.562,1.794,1.794,0,0,0,.912,1.516,10.341,10.341,0,0,0,2.681,1.147,11.59,11.59,0,0,1,4.754,2.434,4.845,4.845,0,0,1,1.49,3.618,4.462,4.462,0,0,1-1.822,3.779,7.976,7.976,0,0,1-4.906,1.37,9.457,9.457,0,0,1-3.9-.784,6.175,6.175,0,0,1-2.683-2.147,5.51,5.51,0,0,1-.924-3.16h3.836q0,3.071,3.669,3.07a3.572,3.572,0,0,0,2.128-.553,1.8,1.8,0,0,0,.765-1.549" transform="translate(-6542.012 -5826.854)" fill="#114769"/><path d="M305.842,323.474a1.812,1.812,0,0,1,.555-1.364,2.388,2.388,0,0,1,3.013,0,1.945,1.945,0,0,1-.006,2.74,2.363,2.363,0,0,1-2.995,0,1.812,1.812,0,0,1-.566-1.377m3.912,17.356h-3.7V327.042h3.7Z" transform="translate(-6538.144 -5826.958)" fill="#114769"/><path d="M315.874,323.167v3.39h2.358v2.7h-2.358v6.881a1.64,1.64,0,0,0,.294,1.1,1.473,1.473,0,0,0,1.121.331,5.824,5.824,0,0,0,1.083-.089v2.79a7.588,7.588,0,0,1-2.23.331q-3.871,0-3.95-3.912v-7.429h-2.013v-2.7h2.013v-3.39Z" transform="translate(-6536.823 -5826.472)" fill="#114769"/><path d="M326.2,338.151a4.615,4.615,0,0,1-3.772,1.657,4.354,4.354,0,0,1-3.382-1.275,5.437,5.437,0,0,1-1.191-3.733v-9.035h3.682v8.917q0,2.155,1.962,2.156a2.656,2.656,0,0,0,2.573-1.3v-9.772h3.7v13.787H326.3Z" transform="translate(-6534.483 -5825.681)" fill="#114769"/><path d="M337.231,339.612a4.07,4.07,0,0,1-.369-1.236,4.459,4.459,0,0,1-3.479,1.49,4.9,4.9,0,0,1-3.357-1.172,3.775,3.775,0,0,1-1.332-2.957,3.9,3.9,0,0,1,1.625-3.364,8.023,8.023,0,0,1,4.7-1.185h1.7V330.4a2.271,2.271,0,0,0-.491-1.529,1.933,1.933,0,0,0-1.549-.573,2.192,2.192,0,0,0-1.459.446,1.513,1.513,0,0,0-.529,1.223H329a3.7,3.7,0,0,1,.74-2.217,4.89,4.89,0,0,1,2.089-1.6,7.628,7.628,0,0,1,3.034-.581,6.009,6.009,0,0,1,4.045,1.281,4.475,4.475,0,0,1,1.5,3.6v5.976a6.577,6.577,0,0,0,.548,2.97v.217Zm-3.045-2.561a3.174,3.174,0,0,0,1.5-.363,2.39,2.39,0,0,0,1.02-.975v-2.371h-1.377q-2.764,0-2.944,1.912l-.013.217a1.473,1.473,0,0,0,.484,1.134,1.882,1.882,0,0,0,1.326.446" transform="translate(-6531.179 -5825.74)" fill="#114769"/><path d="M345.7,336.9a2.421,2.421,0,0,0,1.657-.561,1.955,1.955,0,0,0,.662-1.49h3.454a4.711,4.711,0,0,1-.765,2.568,5.044,5.044,0,0,1-2.058,1.809,6.437,6.437,0,0,1-2.886.643,5.988,5.988,0,0,1-4.664-1.879,7.441,7.441,0,0,1-1.708-5.193v-.241a7.359,7.359,0,0,1,1.7-5.085,5.922,5.922,0,0,1,4.651-1.9,5.8,5.8,0,0,1,4.148,1.472,5.209,5.209,0,0,1,1.587,3.919h-3.454a2.521,2.521,0,0,0-.662-1.749,2.464,2.464,0,0,0-3.626.266,5.437,5.437,0,0,0-.656,3.044v.381a5.505,5.505,0,0,0,.65,3.064,2.247,2.247,0,0,0,1.976.932" transform="translate(-6527.915 -5825.74)" fill="#114769"/><path d="M350.246,323.474a1.816,1.816,0,0,1,.555-1.364,2.389,2.389,0,0,1,3.013,0,1.947,1.947,0,0,1-.005,2.74,2.363,2.363,0,0,1-2.995,0,1.813,1.813,0,0,1-.568-1.377m3.912,17.356h-3.7V327.042h3.7Z" transform="translate(-6524.608 -5826.958)" fill="#114769"/><path d="M355.129,333.882a8.176,8.176,0,0,1,.791-3.657,5.789,5.789,0,0,1,2.274-2.484,6.64,6.64,0,0,1,3.446-.88,6.284,6.284,0,0,1,4.557,1.708,6.842,6.842,0,0,1,1.968,4.639l.026.942a7.2,7.2,0,0,1-1.772,5.091,6.866,6.866,0,0,1-9.512.005,7.331,7.331,0,0,1-1.777-5.2Zm3.682.261a5.162,5.162,0,0,0,.74,3.006,2.655,2.655,0,0,0,4.2.013,5.632,5.632,0,0,0,.753-3.287,5.1,5.1,0,0,0-.753-2.987,2.44,2.44,0,0,0-2.115-1.058,2.4,2.4,0,0,0-2.089,1.052,5.741,5.741,0,0,0-.74,3.261m3.556-12.812h4.014l-3.53,3.95h-2.995Z" transform="translate(-6523.119 -5827.032)" fill="#114769"/><path d="M370.285,325.823l.115,1.593a4.811,4.811,0,0,1,3.963-1.848,4,4,0,0,1,3.262,1.287,6.01,6.01,0,0,1,1.1,3.849v8.906h-3.682v-8.836a2.4,2.4,0,0,0-.51-1.707,2.281,2.281,0,0,0-1.695-.53,2.535,2.535,0,0,0-2.332,1.33v9.743h-3.682V325.823Z" transform="translate(-6519.556 -5825.74)" fill="#114769"/><path d="M201.557,184.533v6.537h-3.823V172.517h7.238a8.371,8.371,0,0,1,3.677.765,5.634,5.634,0,0,1,2.44,2.173,6.062,6.062,0,0,1,.853,3.2,5.326,5.326,0,0,1-1.867,4.3,7.774,7.774,0,0,1-5.167,1.574Zm0-3.1h3.415a3.363,3.363,0,0,0,2.314-.714,2.6,2.6,0,0,0,.8-2.038,3.062,3.062,0,0,0-.8-2.205,3,3,0,0,0-2.217-.866h-3.5Z" transform="translate(-6571.102 -5872.398)" fill="#fff"/><path d="M216.784,190.272a6.771,6.771,0,0,1-4.938-1.861,6.614,6.614,0,0,1-1.905-4.957V183.1a8.332,8.332,0,0,1,.8-3.715,5.9,5.9,0,0,1,2.276-2.524,6.383,6.383,0,0,1,3.357-.885,5.724,5.724,0,0,1,4.453,1.784,7.249,7.249,0,0,1,1.625,5.059v1.5h-8.78a3.425,3.425,0,0,0,1.078,2.166,3.253,3.253,0,0,0,2.274.816,3.974,3.974,0,0,0,3.326-1.541l1.809,2.025a5.528,5.528,0,0,1-2.242,1.829,7.368,7.368,0,0,1-3.136.656m-.42-11.329a2.3,2.3,0,0,0-1.777.742,3.839,3.839,0,0,0-.873,2.124h5.123v-.294a2.751,2.751,0,0,0-.663-1.9,2.377,2.377,0,0,0-1.81-.672" transform="translate(-6567.38 -5871.344)" fill="#fff"/><path d="M228.88,179.682a10.027,10.027,0,0,0-1.326-.1A2.7,2.7,0,0,0,224.815,181v9.022h-3.682V176.23h3.479l.1,1.643a3.414,3.414,0,0,1,3.07-1.9,3.838,3.838,0,0,1,1.147.166Z" transform="translate(-6563.968 -5871.344)" fill="#fff"/><path d="M236.058,186.207a1.185,1.185,0,0,0-.669-1.063,7.594,7.594,0,0,0-2.146-.7q-4.919-1.031-4.919-4.179a3.787,3.787,0,0,1,1.523-3.064,6.147,6.147,0,0,1,3.982-1.23,6.619,6.619,0,0,1,4.2,1.236,3.9,3.9,0,0,1,1.574,3.211h-3.682a1.786,1.786,0,0,0-.51-1.306,2.161,2.161,0,0,0-1.593-.515,2.2,2.2,0,0,0-1.439.42,1.326,1.326,0,0,0-.51,1.071,1.134,1.134,0,0,0,.579.986,5.915,5.915,0,0,0,1.956.65,15.928,15.928,0,0,1,2.32.618q2.916,1.071,2.918,3.708a3.6,3.6,0,0,1-1.618,3.052,6.989,6.989,0,0,1-4.179,1.165,7.313,7.313,0,0,1-3.078-.617,5.169,5.169,0,0,1-2.109-1.7,3.945,3.945,0,0,1-.765-2.325h3.492a1.919,1.919,0,0,0,.727,1.5,2.886,2.886,0,0,0,1.809.522,2.668,2.668,0,0,0,1.6-.4,1.249,1.249,0,0,0,.542-1.052" transform="translate(-6561.908 -5871.344)" fill="#fff"/><path d="M238.272,183a8.166,8.166,0,0,1,.789-3.656,5.793,5.793,0,0,1,2.274-2.486,6.65,6.65,0,0,1,3.447-.878,6.275,6.275,0,0,1,4.555,1.708,6.851,6.851,0,0,1,1.969,4.637l.025.943a7.211,7.211,0,0,1-1.771,5.09,6.864,6.864,0,0,1-9.512.007,7.336,7.336,0,0,1-1.777-5.2Zm3.682.261a5.152,5.152,0,0,0,.739,3.006,2.653,2.653,0,0,0,4.206.012,5.631,5.631,0,0,0,.752-3.284A5.106,5.106,0,0,0,246.9,180a2.448,2.448,0,0,0-2.115-1.061,2.4,2.4,0,0,0-2.09,1.054,5.726,5.726,0,0,0-.739,3.259" transform="translate(-6558.743 -5871.344)" fill="#fff"/><path d="M253.427,176.229l.115,1.593a4.809,4.809,0,0,1,3.963-1.848,4,4,0,0,1,3.262,1.287,6.011,6.011,0,0,1,1.1,3.848v8.907H258.18v-8.838a2.4,2.4,0,0,0-.51-1.705,2.283,2.283,0,0,0-1.695-.53,2.531,2.531,0,0,0-2.332,1.328v9.745h-3.682V176.229Z" transform="translate(-6555.18 -5871.344)" fill="#fff"/><path d="M269.339,190.017a4.036,4.036,0,0,1-.369-1.236,4.458,4.458,0,0,1-3.479,1.49,4.9,4.9,0,0,1-3.357-1.172,3.77,3.77,0,0,1-1.332-2.957,3.9,3.9,0,0,1,1.625-3.364,8.02,8.02,0,0,1,4.7-1.185h1.7V180.8a2.278,2.278,0,0,0-.491-1.529,1.937,1.937,0,0,0-1.549-.573,2.19,2.19,0,0,0-1.459.446,1.509,1.509,0,0,0-.529,1.223h-3.684a3.7,3.7,0,0,1,.74-2.217,4.874,4.874,0,0,1,2.089-1.6,7.623,7.623,0,0,1,3.034-.581,6.013,6.013,0,0,1,4.045,1.281,4.479,4.479,0,0,1,1.5,3.6v5.976a6.559,6.559,0,0,0,.548,2.97v.217Zm-3.046-2.561a3.178,3.178,0,0,0,1.5-.363,2.4,2.4,0,0,0,1.02-.975v-2.371H267.44q-2.766,0-2.944,1.912l-.013.217a1.469,1.469,0,0,0,.484,1.134,1.88,1.88,0,0,0,1.326.446" transform="translate(-6551.875 -5871.344)" fill="#fff"/></g></svg>