<?xml version="1.0" encoding="utf-8"?>
<!-- Generator: Adobe Illustrator 26.0.1, SVG Export Plug-In . SVG Version: 6.00 Build 0)  -->
<svg version="1.1" id="Layer_1" xmlns="http://www.w3.org/2000/svg" xmlns:xlink="http://www.w3.org/1999/xlink" x="0px" y="0px"
	 viewBox="0 0 1050 330" style="enable-background:new 0 0 1050 330;" xml:space="preserve">
<style type="text/css">
	.st0{opacity:0.2;fill:none;stroke:#707070;stroke-width:2;stroke-linecap:round;stroke-dasharray:0,4;enable-background:new    ;}
	.st1{fill:#D1D3D4;}
	.st2{fill:#004D91;}
	.st3{fill:#2594D8;}
	.st4{fill:#25B6E5;}
	.st5{fill:#25D8B6;}
	.st6{fill:#9DD883;}
	.st7{fill:#23DAE3;}
	.st8{fill:#9CD883;}
	.st9{fill:#24DBE4;}
	.st10{fill:#25B6E4;}
	.st11{fill:#FFFFFF;}
</style>
<g>
	<path class="st0" d="M660.5,165c0,75-60.8,135.7-135.7,135.7C449.8,300.7,389,240,389,165S449.8,29.3,524.8,29.3c0,0,0,0,0,0
		C599.7,29.3,660.5,90,660.5,165"/>
	<path class="st1" d="M612,165c0,48.2-39.1,87.3-87.3,87.3c-48.2,0-87.3-39.1-87.3-87.3s39.1-87.3,87.3-87.3
		C573,77.7,612,116.8,612,165C612,165,612,165,612,165"/>
	<path class="st2" d="M603.9,165.9c0,43.7-35.4,79.1-79.1,79.1c-43.7,0-79.1-35.4-79.1-79.1s35.4-79.1,79.1-79.1c0,0,0,0,0,0
		C568.5,86.7,603.9,122.2,603.9,165.9"/>
	<circle class="st3" cx="482.5" cy="35.7" r="2.5"/>
	<circle class="st4" cx="633.5" cy="243.7" r="2.5"/>
	<circle class="st5" cx="633.5" cy="82.7" r="2.5"/>
	<circle class="st6" cx="482.5" cy="294.7" r="2.5"/>
	<circle class="st7" cx="389.5" cy="164.7" r="2.5"/>
	<circle class="st8" cx="564.5" cy="35.7" r="2.5"/>
	<circle class="st3" cx="564.5" cy="292.7" r="2.5"/>
	<circle class="st9" cx="660.5" cy="164.7" r="2.5"/>
	<circle class="st5" cx="417.5" cy="243.7" r="2.5"/>
	<circle class="st10" cx="417.5" cy="82.7" r="2.5"/>
	<path class="st11" d="M510.2,173.6c-0.1,1.8-0.6,3.5-1.5,5c-1,1.5-2.3,2.6-3.9,3.3c-1.8,0.8-3.8,1.2-5.7,1.2
		c-3.2,0.2-6.3-1.1-8.4-3.5c-2-2.3-3.1-5.6-3.1-9.8v-1.3c-0.1-2.4,0.4-4.8,1.4-6.9c0.8-1.9,2.2-3.5,4-4.6c1.8-1.1,3.9-1.7,6-1.6
		c2.9-0.1,5.7,0.8,7.9,2.6c2,1.8,3.3,4.4,3.4,7.1h-6.5c0.1-1.3-0.4-2.6-1.2-3.5c-1-0.8-2.3-1.2-3.6-1.1c-1.4-0.1-2.8,0.6-3.6,1.8
		c-0.8,1.2-1.2,3.1-1.2,5.8v1.9c0,2.9,0.4,4.9,1.1,6.2c0.8,1.3,2.2,2,3.7,1.9c1.2,0.1,2.5-0.3,3.4-1.1c0.9-0.9,1.3-2.1,1.3-3.4
		L510.2,173.6z M533.1,171.3h-10.2v6.4H535v5h-18.6v-27H535v5h-12.1v5.7h10.2V171.3z M547.2,173.6v9.2h-6.5v-27h10.8
		c1.9,0,3.8,0.4,5.5,1.1c1.5,0.7,2.8,1.8,3.7,3.2c0.9,1.4,1.3,3.1,1.3,4.8c0.1,2.4-1,4.8-2.8,6.3c-1.9,1.6-4.5,2.4-7.8,2.4
		L547.2,173.6z M547.2,168.5h4.3c1,0.1,2.1-0.3,2.9-0.9c0.7-0.7,1.1-1.7,1-2.7c0.1-1.1-0.3-2.2-1-3c-0.7-0.8-1.7-1.2-2.8-1.2h-4.3
		L547.2,168.5z"/>
</g>
</svg>
