<svg xmlns="http://www.w3.org/2000/svg" xmlns:xlink="http://www.w3.org/1999/xlink" width="382.605" height="363.563" viewBox="0 0 382.605 363.563"><defs><clipPath id="a"><rect width="25.309" height="48.602" fill="none"/></clipPath><clipPath id="b"><rect width="13.648" height="31.297" fill="none"/></clipPath><clipPath id="c"><rect width="13.002" height="14.912" fill="none"/></clipPath><clipPath id="d"><rect width="13.24" height="14.6" fill="none"/></clipPath><clipPath id="e"><rect width="46.757" height="52.378" fill="none"/></clipPath><clipPath id="f"><rect width="20.518" height="9.633" fill="none"/></clipPath><clipPath id="g"><rect width="34.136" height="50.59" fill="none"/></clipPath><clipPath id="h"><rect width="3.761" height="2.503" fill="none"/></clipPath><clipPath id="i"><rect width="116.331" height="67.163" fill="none"/></clipPath><clipPath id="j"><rect width="38.047" height="32.643" fill="none"/></clipPath><clipPath id="k"><rect width="87.248" height="50.372" fill="none"/></clipPath><clipPath id="l"><rect width="28.535" height="24.482" fill="none"/></clipPath><clipPath id="m"><rect width="35.482" height="30.583" fill="none"/></clipPath><clipPath id="n"><rect width="109.06" height="62.966" fill="none"/></clipPath><clipPath id="o"><rect width="101.789" height="58.768" fill="none"/></clipPath><clipPath id="p"><rect width="33.293" height="28.557" fill="none"/></clipPath><clipPath id="q"><rect width="94.518" height="54.57" fill="none"/></clipPath><clipPath id="r"><rect width="30.763" height="26.359" fill="none"/></clipPath></defs><g transform="translate(5000.991 7910.564)"><path d="M283.817,347.654c-19.028,10.986-19.028,28.8,0,39.784s49.879,10.986,68.907,0,19.028-28.8,0-39.784-49.879-10.986-68.906,0" transform="translate(-5270.538 -7942.678)" fill="#e0e0e0" opacity="0.5"/><path d="M371.366,143.473c-5.2.232-8.134.914-10.775,4.763s-10.541,21.922-11.726,24.291-2.29,5.551-.553,8.381,15.826,20.91,15.826,20.91l5.432-8.118-10.179-15.533,11.077-17.361Z" transform="translate(-5341.036 -7913.142)" fill="#ffa8a7"/><path d="M371.86,143.2c-1.849-.212-5.241-3-8.564-.589s-4.806,6.934-6.821,11.248c-1.366,2.924-8.769,19.2-9.3,20.747s-1.3,3.647.519,6.251,7.481,9.382,7.481,9.382a10.629,10.629,0,0,0,6.974-7.774l-2.409-4.737,7.708-11.49Z" transform="translate(-5340.8 -7912.865)" fill="#0284c6"/><g transform="translate(-4994.249 -7771.232)" opacity="0.7"><g transform="translate(0)"><g clip-path="url(#a)"><path d="M371.86,143.2c-1.849-.212-5.241-3-8.564-.589s-4.806,6.934-6.821,11.248c-1.366,2.924-8.769,19.2-9.3,20.747s-1.3,3.647.519,6.251,7.481,9.382,7.481,9.382a10.629,10.629,0,0,0,6.974-7.774l-2.409-4.737,7.708-11.49Z" transform="translate(-346.551 -141.633)" fill="#fff"/></g></g></g><g transform="translate(-4983.836 -7763.75)" opacity="0.1"><g transform="translate(0)"><g transform="translate(0)" clip-path="url(#b)"><path d="M348.022,181.74l2.526-3.682s2.553-5.659,1.9-10.338c-1.341-9.651-.174-13.561,1.729-17.277l7.49.6-3.163,16.518L350.8,179.05a14.459,14.459,0,0,1-2.777,2.69" transform="translate(-348.022 -150.443)"/></g></g></g><path d="M334.727,208.1a92.184,92.184,0,0,1,6.636-11.175l6.2,26.038,9.918,10.538s-5.908,30.628-7.363,37.234c-1.236,5.611-8.277,44.55-8.277,44.55l-1.079,9.163c-6.589,1.535-7.881-.234-7.884-1.656s-.488-7.126-.488-7.126-1.472-.634-1.729-3.079c-.138-1.3,1.761-2.126,1.61-5.434-.472-10.393-2.291-22.913-2.321-26.248-.087-9.686,3.494-15.271,3.494-15.271.445-9.5-.583-26.142-.476-37.838-3.019-10.285-.9-14.618,1.755-19.7" transform="translate(-5312.33 -7921.199)" fill="#ffa8a7"/><path d="M341.51,335.539c1.37-3.305,9.9-33.816,9.9-33.816s-3.137,16.792-3.495,21.107c-.253,3.062-.508,9.131.63,12.751s4.009,9.327,7.146,9.768c-1.668,1.152-8.612,2.742-11.291-1.629a21.178,21.178,0,0,1-1.609-3.061c-4.708.69-5.709-.826-5.71-2.074,0-.328-.028-.887-.068-1.545.954,2.4,3.132,1.8,4.5-1.5" transform="translate(-5316.521 -7936.997)" fill="#f28f8f"/><path d="M357.931,359.427s-1.062,1.7-6.334-.78-6.669-5.218-6.669-5.218,1.841-10.711,5.049-7.865,7.954,13.862,7.954,13.862" transform="translate(-5325.492 -7943.533)" fill="#0284c6"/><g transform="translate(-4980.563 -7598.449)" opacity="0.3"><g clip-path="url(#c)"><path d="M357.931,359.427s-1.062,1.7-6.334-.78-6.669-5.218-6.669-5.218,1.841-10.711,5.049-7.865,7.954,13.862,7.954,13.862" transform="translate(-344.929 -345.084)"/></g></g><path d="M332.69,329.955c1.118-.535,3.986.794,5.639,2.342,2.173,2.036,2.611,4.682,3.637,7.817,1.094,3.342,3.142,7.96,4.907,9.046s5.108.29,7.836.386,4.782,1.434,4.854,3.428c.01,1.567-7.222,4.871-11.706,4.87-3.722,0-5.015.578-6.846-4.945s-2.483-8.617-4.269-4.987-2.809,11.921-2.809,11.921a2.773,2.773,0,0,1-3.054-.128s.039-5.3-.29-8.666-1.89-8.7-1.493-12.713,2.49-7.873,3.595-8.371" transform="translate(-5313.624 -7941.234)" fill="#263238"/><path d="M302.2,239.413c-.941-7.654,21.452-16.558,21.452-16.558s3.928,56.276,3.928,67.447c0,5.745.572,50.874.572,50.874l-1.079,9.162c-6.588,1.536-7.88-.234-7.883-1.655s-.488-7.126-.488-7.126-.988-.484-1.245-2.929c-.137-1.3.295-3.034.141-5.041-.795-10.375-3.09-17.459-5.305-27.412a87.594,87.594,0,0,1-1.924-18.274c-2.341-12.449-7.075-39.586-8.169-48.488" transform="translate(-5259.407 -7925.108)" fill="#ffa8a7"/><path d="M295.313,360.474c1.37-3.305,4.526-39.18,4.527-39.184.31,12.514.359,23.243.648,27.829a47.9,47.9,0,0,0,1.856,11.4c1.139,3.62,4.009,9.327,7.146,9.768-1.668,1.152-8.611,2.742-11.291-1.629a21.219,21.219,0,0,1-1.609-3.061c-4.708.69-5.709-.826-5.71-2.074,0-.328-.028-.887-.068-1.545.953,2.4,3.132,1.8,4.5-1.5" transform="translate(-5231.091 -7939.946)" fill="#f28f8f"/><path d="M310.817,385.615s-.99,1.742-6.36-.516-6.88-4.938-6.88-4.938,1.4-10.777,4.718-8.066,8.521,13.521,8.521,13.521" transform="translate(-5238.165 -7947.539)" fill="#0284c6"/><g transform="translate(-4940.587 -7575.881)" opacity="0.3"><g transform="translate(0)"><g transform="translate(0)" clip-path="url(#d)"><path d="M310.817,385.615s-.99,1.742-6.36-.516-6.88-4.938-6.88-4.938,1.4-10.777,4.718-8.066,8.521,13.521,8.521,13.521" transform="translate(-297.578 -371.657)"/></g></g></g><path d="M285.161,356.749c1.095-.581,4.016.628,5.732,2.107,2.256,1.945,2.8,4.57,3.958,7.659,1.231,3.294,3.469,7.824,5.276,8.837s5.117.077,7.846.06,4.837,1.235,4.991,3.225c.076,1.565-7.014,5.167-11.494,5.351-3.72.152-4.988.785-7.045-4.658s-2.838-8.506-4.473-4.806-2.257,11.415-2.257,11.415a2.326,2.326,0,0,1-3.291.075,72.54,72.54,0,0,0-.471-8.11c-.469-3.348-2.248-8.611-2.018-12.641s2.162-7.969,3.245-8.513" transform="translate(-5226.994 -7945.269)" fill="#263238"/><path d="M347.019,198.152c2,12.12,2.364,15.889,3.837,31.433,1.147,12.1,1.857,47.057,1.909,51.939s.79,35.073.79,35.073-6.685,5.7-12.9,1.246c0,0-3.647-13.189-4.91-17.913a38.218,38.218,0,0,1-1.375-16.667l-6.621-41.142s-5.547,29.522-7.13,37.928-3.524,16.225-3.524,16.225a12.767,12.767,0,0,1-7.054,1.608,9.66,9.66,0,0,1-6.87-3.214s-1.732-10.788-1.76-14.566a29.649,29.649,0,0,1,3.517-15.123l-.836-37.7s-2.749-6.7-.854-13.242c2.369-8.184,9.584-20.49,9.584-20.49Z" transform="translate(-5284.158 -7920.691)" fill="#37474f"/><path d="M347.054,247.88l-2.668-9.8s-8.222-.648-12.59-6.32c1.4,2.665,2.744,5.807,10.152,8.634l2.59,10-4.1,32.668Z" transform="translate(-5303.462 -7926.45)" fill="#263238"/><path d="M303.641,154.709c.559-3.952,1.966-8.745,5.772-10.386s10.663-1,10.663-1c.536,1.8,7.106,4.11,10.347,1,3.146.662,7.011,1.38,11.246,2.41,3.361.818,5.325,13.543,7.539,17.646,2.6,4.818.068,11.4-3.237,13.934,0,0-.057,6.8-.43,12.252-5.8,4.856-16.638,6.179-25.007,4-6.3-1.642-8.063-3.738-9.4-8.229-.561-1.879-1.373-4.516-2.547-7.774-2.72-7.552-5.687-18.584-4.944-23.848" transform="translate(-5282.68 -7913.101)" fill="#0284c6"/><g transform="translate(-4979.156 -7769.901)" opacity="0.8"><g transform="translate(0)"><g transform="translate(0)" clip-path="url(#e)"><path d="M303.641,154.709c.559-3.952,1.966-8.745,5.772-10.386s10.663-1,10.663-1c.536,1.8,7.106,4.11,10.347,1,3.146.662,7.011,1.38,11.246,2.41,3.361.818,5.325,13.543,7.539,17.646,2.6,4.818.068,11.4-3.237,13.934,0,0-.057,6.8-.43,12.252-5.8,4.856-16.638,6.179-25.007,4-6.3-1.642-8.063-3.738-9.4-8.229-.561-1.879-1.373-4.516-2.547-7.774-2.72-7.552-5.687-18.584-4.944-23.848" transform="translate(-303.525 -143.2)" fill="#fff"/></g></g></g><path d="M338.98,134.917l-.442,9.59c-5.775,2.02-13.7.554-12.774-2.824l.138-8.659Z" transform="translate(-5290.203 -7911.567)" fill="#ffa8a7"/><path d="M347.242,98.884a10,10,0,0,0,.138-2.2,5.137,5.137,0,0,0-.669-2.507c-1.177-1.868-3.282-1.777-5.2-1.666a30.337,30.337,0,0,1-11.27-1.307c-1.5-.5-2.944-1.138-4.45-1.609a15.06,15.06,0,0,0-11.6.7A10.329,10.329,0,0,0,309.1,96.9c-.3,1.327-.091,2.646-.287,3.972-.241,1.631-.854,3.18-1.08,4.814a37.451,37.451,0,0,0-.262,5.317c.035,7.341,17.255,11.361,17.138,16.4l8.585-11.432c-.02-.459,1.21-1.658,1.483-2.058.511-.751.96-1.552,1.426-2.335a12.3,12.3,0,0,1,3.42-3.671c1.3-.936,2.805-1.559,4.033-2.595a10.94,10.94,0,0,0,3.683-6.425" transform="translate(-5283.144 -7904.896)" fill="#263238"/><path d="M311.648,115.563s3.13,4.238,2.766,4.716a7.079,7.079,0,0,1-2.209,1.052Z" transform="translate(-5253.742 -7908.935)" fill="#f28f8f"/><path d="M333.29,99.578c2.92,1.325,7.974,3.789,9.7,14.075,1.767,10.559-.475,14.353-1.887,15.809-.953.983-6.066,1.547-8.778.848-3.392-.875-10.8-4.079-14.437-9.409-4.282-6.272-5.485-14.827-1.015-18.4,6.289-5.025,13.95-4.048,16.421-2.926" transform="translate(-5284.967 -7906.39)" fill="#ffa8a7"/><path d="M324.48,134.979c-1.173.715-4.572,1.139-7.13.879l-.007-1.911a18.694,18.694,0,0,0,3.434.955,12.129,12.129,0,0,0,3.7.076" transform="translate(-5268.615 -7911.706)" fill="#f28f8f"/><path d="M347.305,98.858a11.247,11.247,0,0,1,3.407,1.768,4.5,4.5,0,0,1,1.242,1.459,3.51,3.51,0,0,1,.313,1.7,4.571,4.571,0,0,1-2.507,3.808,4.447,4.447,0,0,1,.881,3.663,8.827,8.827,0,0,1-2.452,3.886.433.433,0,0,1-.687.047c-1.846-1.121-3.045-3.144-5.545-2.2-3.28,1.237-3.321,4.475-1.226,7.253a4.425,4.425,0,0,0,3.2,2.018,2.47,2.47,0,0,0,2.048-.681s-.279,6.163-4.847,8.489c0,0-5.407,1.483-8.4-.288-1.853-2.151-4.922-4.874-7.458-7.316-8.356-8.044-9.344-20.22,2.263-24.588q.6-.225,1.213-.418a25.3,25.3,0,0,1,17.169.864c.465.2.927.368,1.382.538" transform="translate(-5297.743 -7906.039)" fill="#263238"/><path d="M323.361,122.026a2.46,2.46,0,0,0,1.371-3.228,2.527,2.527,0,0,0-3.282-1.343Z" transform="translate(-5272.543 -7909.192)" fill="#263238"/><path d="M355.567,100.718a2.172,2.172,0,0,1-3.083-.294,2.231,2.231,0,0,1,.339-3.113Z" transform="translate(-5329.136 -7906.184)" fill="#263238"/><path d="M335.735,140.106c.717-.043,1.174.3,2.045,1.42,1.2,1.549,2.87,3.415,2.87,3.415s-1.482,2.729-6.181,3.664-8.722.512-11.147-.473-2.8-1.786-3.107-2.864.262-2.82.965-4.335,1.585-1.44,1.585-1.44V140.7s.255,1.3,3.892,1.935,7.947,0,9.008-1.011Z" transform="translate(-5287.151 -7912.542)" fill="#0284c6"/><g transform="translate(-4967.02 -7773.049)" opacity="0.7"><g transform="translate(0)"><g clip-path="url(#f)"><path d="M335.735,140.106c.717-.043,1.174.3,2.045,1.42,1.2,1.549,2.87,3.415,2.87,3.415s-1.482,2.729-6.181,3.664-8.722.512-11.147-.473-2.8-1.786-3.107-2.864.262-2.82.965-4.335,1.585-1.44,1.585-1.44V140.7s.255,1.3,3.892,1.935,7.947,0,9.008-1.011Z" transform="translate(-320.132 -139.493)" fill="#fff"/></g></g></g><path d="M286.738,147.357c4.088.568,5.81,1.513,9.44,6.726s15.513,23.322,16.959,27.411c1.939,5.483.386,6.772-2.153,9.137-2.324,2.166-14.789,12.37-15.632,13.457s-.015,10.223-1.533,11.722c-.006.062-.011.077-.018.023-.037-.324-.289-1.686-.683-3.386a31.535,31.535,0,0,0-3.525-7.636c-1.276-2.144-2.437-4.572-2.07-7.094.2-1.384,2.185-2.362,3.555-3.668,3.586-3.419,8.628-9.576,8.628-9.576l-15.391-18.48c-1.811-2.324-6.258-11.911,2.424-18.637" transform="translate(-5227.75 -7913.728)" fill="#ffa8a7"/><path d="M285.442,146.777c2.784-2.156,7.941-3.342,11.155,4.933,1.506,3.875,11.334,18.405,14.166,23.539s5.259,9.581,3.018,12.548-9.349,7.992-9.349,7.992-6.3-2.054-7.868-8.2l2.914-3.443s-11.164-12.764-13.286-15.193-4.151-4.369-5.171-8.612-.888-9.025,4.42-13.566" transform="translate(-5227.524 -7913.402)" fill="#0284c6"/><g transform="translate(-4947 -7768.204)" opacity="0.7"><g transform="translate(0)"><g clip-path="url(#g)"><path d="M285.442,146.777c2.784-2.156,7.941-3.342,11.155,4.933,1.506,3.875,11.334,18.405,14.166,23.539s5.259,9.581,3.018,12.548-9.349,7.992-9.349,7.992-6.3-2.054-7.868-8.2l2.914-3.443s-11.164-12.764-13.286-15.193-4.151-4.369-5.171-8.612-.888-9.025,4.42-13.566" transform="translate(-280.523 -145.199)" fill="#fff"/></g></g></g><g transform="translate(-4928.87 -7729.254)" opacity="0.1"><g transform="translate(0)"><g clip-path="url(#h)"><path d="M295.767,191.062a33.617,33.617,0,0,0,2.935,2.5l-3.761-1.509Z" transform="translate(-294.942 -191.062)"/></g></g></g><path d="M53.831,295.949l31.8-18.362a6.893,6.893,0,0,1,6.239,0l1.979,1.142,21.964-12.682a6.469,6.469,0,0,1,5.85,0l2.218,1.281,19.532-11.277a6.036,6.036,0,0,1,5.459,0l2.41,1.391,16.833-9.719a5.6,5.6,0,0,1,5.069,0l2.557,1.476,18.575-10.724a5.168,5.168,0,0,1,4.679,0l56.776,32.779c1.292.747,1.292,1.956,0,2.7L234.969,285.97a2.82,2.82,0,0,1-.271.191l-25.841,14.92c-.062.036-.135.061-.2.095l-21.368,12.337c-.074.042-.158.073-.236.112l-19.27,11.125c-.071.047-.127.1-.2.144l-31.8,18.363a6.9,6.9,0,0,1-6.24,0l-75.7-43.707c-1.723-1-1.723-2.607,0-3.6" transform="translate(-4960.414 -7934.224)" fill="#e0e0e0" opacity="0.5"/><path d="M268.076,298.329v2.933a6.9,6.9,0,0,1-3.12,5.4l-31.8,18.362a6.9,6.9,0,0,1-6.24,0l-75.7-43.707a6.9,6.9,0,0,1-3.12-5.4v-2.932a6.894,6.894,0,0,1,3.12-5.4l31.8-18.363a6.9,6.9,0,0,1,6.24,0l75.7,43.707a6.9,6.9,0,0,1,3.12,5.4" transform="translate(-5057.793 -7935.273)" fill="#0284c6"/><g transform="translate(-4907.875 -7686.8)" opacity="0.5"><g transform="translate(0)"><g transform="translate(0)" clip-path="url(#i)"><path d="M265.158,296.527l-31.8,18.362a6.893,6.893,0,0,1-6.239,0l-75.7-43.706c-1.723-1-1.723-2.608,0-3.6l31.8-18.363a6.9,6.9,0,0,1,6.24,0l75.7,43.707c1.723,1,1.723,2.607,0,3.6" transform="translate(-150.12 -248.473)" fill="#fff"/></g></g></g><g transform="translate(-4827.762 -7642.146)" opacity="0.2" style="mix-blend-mode:multiply;isolation:isolate"><g transform="translate(0)"><g transform="translate(0)" clip-path="url(#j)"><path d="M148.089,320.565V330.7a6.381,6.381,0,0,0,3.12-.742L183.016,311.6a6.9,6.9,0,0,0,3.12-5.4V303.26a6.984,6.984,0,0,0-2.8-5.2c1.4,1,1.29,2.471-.317,3.4l-31.808,18.364a6.361,6.361,0,0,1-3.12.742" transform="translate(-148.089 -298.058)"/></g></g></g><path d="M190.337,275.116v2.933a6.9,6.9,0,0,0,3.12,5.4l75.7,43.708a6.38,6.38,0,0,0,3.119.742V317.766a6.361,6.361,0,0,1-3.119-.742l-75.7-43.709c-1.607-.929-1.715-2.4-.317-3.4a6.98,6.98,0,0,0-2.8,5.2" transform="translate(-5100.042 -7937.405)" fill="#0284c6"/><path d="M141,99.694v2.2a5.172,5.172,0,0,1-2.34,4.052l-23.854,13.771a5.17,5.17,0,0,1-4.68,0L53.356,86.938a5.172,5.172,0,0,1-2.34-4.052v-2.2a5.172,5.172,0,0,1,2.34-4.052L77.209,62.861a5.174,5.174,0,0,1,4.679,0l56.776,32.78A5.172,5.172,0,0,1,141,99.694" transform="translate(-4843.3 -7916.759)" fill="#0284c6"/><g transform="translate(-4790.915 -7854.457)" opacity="0.5"><g transform="translate(0)"><g clip-path="url(#k)"><path d="M138.817,98.343l-23.854,13.772a5.174,5.174,0,0,1-4.679,0L53.508,79.335c-1.292-.746-1.292-1.955,0-2.7L77.362,62.861a5.174,5.174,0,0,1,4.679,0l56.776,32.78c1.292.747,1.292,1.956,0,2.7" transform="translate(-52.539 -62.302)" fill="#fff"/></g></g></g><g transform="translate(-4730.83 -7820.966)" opacity="0.2" style="mix-blend-mode:multiply;isolation:isolate"><g transform="translate(0)"><g transform="translate(0)" clip-path="url(#l)"><path d="M51.015,116.372v7.6a4.786,4.786,0,0,0,2.34-.557L77.21,109.645a5.174,5.174,0,0,0,2.34-4.052v-2.2a5.238,5.238,0,0,0-2.1-3.9c1.048.751.967,1.853-.238,2.55L53.355,115.815a4.771,4.771,0,0,1-2.34.557" transform="translate(-51.015 -99.492)"/></g></g></g><path d="M82.7,82.285v2.2a5.174,5.174,0,0,0,2.34,4.052l56.778,32.782a4.785,4.785,0,0,0,2.34.557v-7.6a4.771,4.771,0,0,1-2.34-.557L85.041,80.934c-1.2-.7-1.286-1.8-.238-2.55a5.238,5.238,0,0,0-2.1,3.9" transform="translate(-4874.988 -7918.359)" fill="#0284c6"/><path d="M232.964,242.858v2.749a6.463,6.463,0,0,1-2.925,5.066l-29.816,17.215a6.463,6.463,0,0,1-5.85,0L123.4,226.913a6.465,6.465,0,0,1-2.925-5.066V219.1a6.462,6.462,0,0,1,2.925-5.066l29.817-17.215a6.461,6.461,0,0,1,5.849,0l70.97,40.974a6.463,6.463,0,0,1,2.925,5.066" transform="translate(-4997.814 -7930.066)" fill="#0284c6"/><g transform="translate(-4800.329 -7692.067)" opacity="0.2" style="mix-blend-mode:multiply;isolation:isolate"><g transform="translate(0)"><g transform="translate(0)" clip-path="url(#m)"><path d="M120.474,263.706v9.5a5.9,5.9,0,0,0,2.738-.693l29.817-17.219a6.461,6.461,0,0,0,2.927-5.061v-2.747a6.556,6.556,0,0,0-2.6-4.863c1.279.946,1.171,2.305-.324,3.17l-29.817,17.219a5.871,5.871,0,0,1-2.738.693" transform="translate(-120.474 -242.624)"/></g></g></g><g transform="translate(-4875.624 -7733.949)" opacity="0.5"><g transform="translate(0)"><g transform="translate(0)" clip-path="url(#n)"><path d="M230.229,241.169l-29.817,17.215a6.462,6.462,0,0,1-5.849,0L123.592,217.41c-1.615-.933-1.615-2.445,0-3.377l29.817-17.215a6.463,6.463,0,0,1,5.85,0l70.97,40.974c1.616.932,1.616,2.444,0,3.377" transform="translate(-122.38 -196.118)" fill="#fff"/></g></g></g><path d="M200.721,192.353v2.567a6.034,6.034,0,0,1-2.73,4.728l-27.83,16.067a6.03,6.03,0,0,1-5.459,0L98.464,177.471a6.035,6.035,0,0,1-2.73-4.728v-2.567a6.035,6.035,0,0,1,2.73-4.728l27.828-16.067a6.032,6.032,0,0,1,5.46,0l66.239,38.243a6.033,6.033,0,0,1,2.73,4.728" transform="translate(-4943.289 -7925.354)" fill="#0284c6"/><g transform="translate(-4845.955 -7776.626)" opacity="0.5"><g transform="translate(0)"><g clip-path="url(#o)"><path d="M198.168,190.777l-27.83,16.068a6.036,6.036,0,0,1-5.459,0L98.641,168.6c-1.508-.87-1.508-2.281,0-3.152l27.829-16.067a6.03,6.03,0,0,1,5.459,0l66.239,38.243c1.508.87,1.508,2.281,0,3.152" transform="translate(-97.511 -148.728)" fill="#fff"/></g></g></g><g transform="translate(-4775.86 -7737.545)" opacity="0.2" style="mix-blend-mode:multiply;isolation:isolate"><g transform="translate(0)"><g transform="translate(0)" clip-path="url(#p)"><path d="M95.734,211.809v8.87a5.642,5.642,0,0,0,2.738-.648L126.3,203.965a6.051,6.051,0,0,0,2.729-4.728v-2.567a6.087,6.087,0,0,0-2.45-4.548c1.216.865,1.126,2.153-.279,2.972L98.472,211.162a5.652,5.652,0,0,1-2.738.647" transform="translate(-95.734 -192.124)"/></g></g></g><path d="M170.388,145.176v2.383a5.6,5.6,0,0,1-2.535,4.39l-25.841,14.919a5.6,5.6,0,0,1-5.069,0L75.434,131.357a5.6,5.6,0,0,1-2.534-4.39v-2.383a5.6,5.6,0,0,1,2.534-4.39l25.841-14.919a5.607,5.607,0,0,1,5.07,0l61.507,35.512a5.6,5.6,0,0,1,2.535,4.39" transform="translate(-4892.391 -7920.973)" fill="#0284c6"/><g transform="translate(-4818.007 -7816.305)" opacity="0.5"><g clip-path="url(#q)"><path d="M168.018,143.712l-25.841,14.919a5.6,5.6,0,0,1-5.069,0L75.6,123.12c-1.4-.808-1.4-2.118,0-2.927l25.841-14.919a5.6,5.6,0,0,1,5.069,0l61.508,35.512c1.4.808,1.4,2.119,0,2.927" transform="translate(-74.55 -104.668)" fill="#fff"/></g></g><g transform="translate(-4752.77 -7779.862)" opacity="0.2" style="mix-blend-mode:multiply;isolation:isolate"><g transform="translate(0)"><g transform="translate(0)" clip-path="url(#r)"><path d="M72.9,163.262v8.231a5.012,5.012,0,0,0,2.386-.6l25.846-14.913a5.614,5.614,0,0,0,2.531-4.395V149.2a5.654,5.654,0,0,0-2.071-4.071c.919.8.765,1.891-.459,2.6L75.29,162.659a4.986,4.986,0,0,1-2.386.6" transform="translate(-72.904 -145.134)"/></g></g></g><path d="M121.616,21.419c-8.68-2.628-14.267-7.31-17.4-16.756,0,0,4.876,4.408,13.5,4.408s16.9-2.953,24.586-2.953a48.823,48.823,0,0,1,15.325,2.953V35.254a29.488,29.488,0,0,0-15.325-4.539c-7.688,0-15.958,2.952-24.586,2.952a22.263,22.263,0,0,1-9.17-1.834,28.416,28.416,0,0,1-7.993-6.054,29.592,29.592,0,0,0,21.056-4.36" transform="translate(-4904.547 -7911.027)" fill="#0284c6"/><path d="M115.072,25.71,118.409,24l3.3,1.781a.932.932,0,0,0,1.364-.968l-.591-3.7,2.713-2.586a.933.933,0,0,0-.5-1.6l-3.7-.582-1.62-3.379a.933.933,0,0,0-1.673-.019L116,16.3l-3.715.5a.933.933,0,0,0-.535,1.586l2.654,2.647-.676,3.686a.933.933,0,0,0,1.343,1" transform="translate(-4882.228 -7911.801)" fill="#fff"/><path d="M96.437,1.052a.93.93,0,0,1,.541-.738,2.9,2.9,0,0,1,2.628,0,.929.929,0,0,1,.54.738h0V80.727c0,.581-.831,1.052-1.856,1.052s-1.857-.471-1.857-1.052h0V1.052Z" transform="translate(-4843.346 -7910.563)" fill="#455a64"/><path d="M96.422,1.057C96.422.474,97.258,0,98.288,0s1.866.474,1.866,1.057-.836,1.057-1.866,1.057-1.866-.474-1.866-1.057" transform="translate(-4843.34 -7910.563)" fill="#37474f"/><path d="M5.933,15.52,8.481,6.2h3.445L7.62,19H4.245L-.026,6.2H3.393ZM15.847,19H12.876V9.49h2.971ZM12.7,7.038A1.322,1.322,0,0,1,13.157,6a1.724,1.724,0,0,1,1.187-.4A1.724,1.724,0,0,1,15.53,6a1.322,1.322,0,0,1,.457,1.037,1.322,1.322,0,0,1-.457,1.037,1.724,1.724,0,0,1-1.187.4,1.724,1.724,0,0,1-1.187-.4A1.322,1.322,0,0,1,12.7,7.038Zm9.949,9.29a.684.684,0,0,0-.4-.606,6.016,6.016,0,0,0-1.5-.475,6.853,6.853,0,0,1-1.828-.646,3.062,3.062,0,0,1-1.1-.971,2.319,2.319,0,0,1-.378-1.31,2.628,2.628,0,0,1,1.081-2.158,4.453,4.453,0,0,1,2.83-.848,4.934,4.934,0,0,1,3.023.853,2.666,2.666,0,0,1,1.143,2.241H22.553q0-1.143-1.2-1.143a1.194,1.194,0,0,0-.782.259.8.8,0,0,0-.316.646.737.737,0,0,0,.387.642,3.654,3.654,0,0,0,1.235.4,10.671,10.671,0,0,1,1.49.378,2.706,2.706,0,0,1,2.145,2.646,2.491,2.491,0,0,1-1.156,2.118,5.068,5.068,0,0,1-2.993.817,5.172,5.172,0,0,1-2.18-.439,3.645,3.645,0,0,1-1.494-1.2,2.707,2.707,0,0,1-.536-1.591h2.769a1.145,1.145,0,0,0,.439.962,1.808,1.808,0,0,0,1.081.3,1.422,1.422,0,0,0,.91-.246A.787.787,0,0,0,22.649,16.328Zm9.905,1.644a3.054,3.054,0,0,1-2.54,1.2,3,3,0,0,1-2.369-.91,3.826,3.826,0,0,1-.8-2.615V9.49H29.8v6.179a1.065,1.065,0,0,0,1.187,1.222,1.548,1.548,0,0,0,1.45-.729V9.49H35.42V19H32.643ZM42.4,19a3.344,3.344,0,0,1-.281-.853,2.754,2.754,0,0,1-2.285,1.028,3.374,3.374,0,0,1-2.285-.813,2.588,2.588,0,0,1-.94-2.043,2.66,2.66,0,0,1,1.143-2.338,5.821,5.821,0,0,1,3.322-.791h.914v-.5q0-1.31-1.134-1.31A.925.925,0,0,0,39.8,12.417H36.835a2.659,2.659,0,0,1,1.173-2.241A4.927,4.927,0,0,1,41,9.314a4.323,4.323,0,0,1,2.874.888,3.086,3.086,0,0,1,1.081,2.435v4.21a4.311,4.311,0,0,0,.4,2V19Zm-1.854-1.934a1.652,1.652,0,0,0,.918-.237,1.487,1.487,0,0,0,.523-.536V14.772h-.861q-1.547,0-1.547,1.389a.848.848,0,0,0,.272.655A.986.986,0,0,0,40.544,17.066ZM49.72,19H46.749V5.5H49.72Zm4.948,0H51.7V9.49h2.971ZM51.521,7.038A1.322,1.322,0,0,1,51.979,6a1.943,1.943,0,0,1,2.373,0,1.322,1.322,0,0,1,.457,1.037,1.322,1.322,0,0,1-.457,1.037,1.943,1.943,0,0,1-2.373,0A1.322,1.322,0,0,1,51.521,7.038Zm8.464,9.677h4.333V19H56.241V17.348l4.219-5.572H56.426V9.49h7.8v1.6ZM71.112,19a3.344,3.344,0,0,1-.281-.853,2.754,2.754,0,0,1-2.285,1.028,3.374,3.374,0,0,1-2.285-.813,2.588,2.588,0,0,1-.94-2.043,2.66,2.66,0,0,1,1.143-2.338,5.821,5.821,0,0,1,3.322-.791H70.7v-.5q0-1.31-1.134-1.31a.925.925,0,0,0-1.055,1.037H65.549a2.659,2.659,0,0,1,1.173-2.241,4.927,4.927,0,0,1,2.993-.861,4.323,4.323,0,0,1,2.874.888,3.086,3.086,0,0,1,1.081,2.435v4.21a4.311,4.311,0,0,0,.4,2V19Zm-1.854-1.934a1.652,1.652,0,0,0,.918-.237,1.487,1.487,0,0,0,.523-.536V14.772h-.861q-1.547,0-1.547,1.389a.848.848,0,0,0,.272.655A.986.986,0,0,0,69.258,17.066Zm11.8-4.9-.976-.07a1.752,1.752,0,0,0-1.793.879V19H75.331V9.49h2.777l.1,1.222a2.294,2.294,0,0,1,2.083-1.4,2.888,2.888,0,0,1,.826.105Z" transform="translate(-4766.518 -7628.564)" fill="#12263f"/><path d="M4.254,19H1.178V6.2H4.254Zm1.635-4.825a5.809,5.809,0,0,1,.976-3.56,3.211,3.211,0,0,1,2.725-1.3,2.731,2.731,0,0,1,2.145,1V5.5H14.7V19H12.041l-.149-1.02a2.8,2.8,0,0,1-2.32,1.2,3.205,3.205,0,0,1-2.689-1.3A5.993,5.993,0,0,1,5.889,14.175Zm2.962.185q0,2.531,1.477,2.531a1.458,1.458,0,0,0,1.406-.826V12.443a1.419,1.419,0,0,0-1.389-.844q-1.371,0-1.485,2.215Zm12.138,4.816a4.889,4.889,0,0,1-3.542-1.305,4.507,4.507,0,0,1-1.354-3.4v-.246a5.84,5.84,0,0,1,.541-2.575,3.955,3.955,0,0,1,1.578-1.727,4.763,4.763,0,0,1,2.461-.611,4.117,4.117,0,0,1,3.164,1.244A4.887,4.887,0,0,1,25,14.025v1.151H19.107a2.135,2.135,0,0,0,.694,1.257,2.066,2.066,0,0,0,1.389.457,2.662,2.662,0,0,0,2.2-.984l1.354,1.6a3.784,3.784,0,0,1-1.569,1.217A5.3,5.3,0,0,1,20.988,19.176ZM20.654,11.6q-1.3,0-1.547,1.723H22.1v-.229a1.467,1.467,0,0,0-.36-1.1A1.434,1.434,0,0,0,20.654,11.6ZM28.907,9.49l.1,1.116A3.225,3.225,0,0,1,31.72,9.314a2.713,2.713,0,0,1,2.219.888,4.226,4.226,0,0,1,.76,2.672V19H31.729V13a1.6,1.6,0,0,0-.29-1.059,1.342,1.342,0,0,0-1.055-.338,1.413,1.413,0,0,0-1.292.686V19H26.13V9.49ZM39.788,7.126V9.49h1.564v2.057H39.788V15.9a1.111,1.111,0,0,0,.193.747,1.037,1.037,0,0,0,.765.211,4.345,4.345,0,0,0,.738-.053v2.118a5.466,5.466,0,0,1-1.67.255,3.1,3.1,0,0,1-2.259-.721,2.954,2.954,0,0,1-.729-2.188v-4.72H35.613V9.49h1.213V7.126ZM45.642,19H42.671V9.49h2.971ZM42.5,7.038A1.322,1.322,0,0,1,42.952,6a1.943,1.943,0,0,1,2.373,0,1.322,1.322,0,0,1,.457,1.037,1.322,1.322,0,0,1-.457,1.037,1.943,1.943,0,0,1-2.373,0A1.322,1.322,0,0,1,42.5,7.038ZM48.155,19V11.547h-1.38V9.49h1.38V9.174A3.631,3.631,0,0,1,49.4,6.265a4.987,4.987,0,0,1,3.243-.949,11.509,11.509,0,0,1,3.094.51l-.4,2.338-.492-.132a7.832,7.832,0,0,0-2.021-.255q-1.7,0-1.7,1.547V9.49h1.863v2.057H51.126V19ZM57.1,19H54.123V9.49H57.1Zm5.827-2.109a1.317,1.317,0,0,0,.967-.338,1.241,1.241,0,0,0,.334-.945h2.777a3.288,3.288,0,0,1-1.121,2.566,4.168,4.168,0,0,1-2.887,1,4.22,4.22,0,0,1-3.27-1.3,5.125,5.125,0,0,1-1.2-3.6v-.123a5.792,5.792,0,0,1,.532-2.544,3.872,3.872,0,0,1,1.534-1.7,4.573,4.573,0,0,1,2.373-.593,4.116,4.116,0,0,1,2.944,1.028,3.647,3.647,0,0,1,1.09,2.786H64.23A1.626,1.626,0,0,0,63.87,12a1.244,1.244,0,0,0-.967-.4q-1.151,0-1.345,1.468a10.357,10.357,0,0,0-.062,1.283,4.068,4.068,0,0,0,.343,1.986A1.187,1.187,0,0,0,62.93,16.891ZM73.617,19a3.344,3.344,0,0,1-.281-.853,2.754,2.754,0,0,1-2.285,1.028,3.374,3.374,0,0,1-2.285-.813,2.588,2.588,0,0,1-.94-2.043,2.66,2.66,0,0,1,1.143-2.338,5.821,5.821,0,0,1,3.322-.791H73.2v-.5q0-1.31-1.134-1.31a.925.925,0,0,0-1.055,1.037H68.054a2.659,2.659,0,0,1,1.173-2.241,4.927,4.927,0,0,1,2.993-.861,4.323,4.323,0,0,1,2.874.888,3.086,3.086,0,0,1,1.081,2.435v4.21a4.311,4.311,0,0,0,.4,2V19Zm-1.854-1.934a1.652,1.652,0,0,0,.918-.237,1.487,1.487,0,0,0,.523-.536V14.772h-.861q-1.547,0-1.547,1.389a.848.848,0,0,0,.272.655A.986.986,0,0,0,71.763,17.066Zm11.8-4.9-.976-.07a1.752,1.752,0,0,0-1.793.879V19H77.836V9.49h2.777l.1,1.222a2.294,2.294,0,0,1,2.083-1.4,2.888,2.888,0,0,1,.826.105Z" transform="translate(-4741.518 -7676.564)" fill="#12263f"/><path d="M.967,19V6.2H5.089a6.064,6.064,0,0,1,3.05.769,5.406,5.406,0,0,1,2.114,2.171,6.554,6.554,0,0,1,.769,3.142v.589a6.592,6.592,0,0,1-.743,3.151A5.429,5.429,0,0,1,8.187,18.2a5.93,5.93,0,0,1-3.01.8ZM4.052,8.585v8.042H5.124a2.4,2.4,0,0,0,2.039-.945,4.63,4.63,0,0,0,.712-2.808V12.32a4.592,4.592,0,0,0-.712-2.795,2.442,2.442,0,0,0-2.074-.94ZM17.068,19.176a4.889,4.889,0,0,1-3.542-1.305,4.507,4.507,0,0,1-1.354-3.4v-.246a5.84,5.84,0,0,1,.541-2.575,3.955,3.955,0,0,1,1.578-1.727,4.763,4.763,0,0,1,2.461-.611,4.117,4.117,0,0,1,3.164,1.244,4.887,4.887,0,0,1,1.16,3.467v1.151H15.188a2.135,2.135,0,0,0,.694,1.257,2.066,2.066,0,0,0,1.389.457,2.662,2.662,0,0,0,2.2-.984l1.354,1.6a3.784,3.784,0,0,1-1.569,1.217A5.3,5.3,0,0,1,17.068,19.176ZM16.734,11.6q-1.3,0-1.547,1.723h2.988v-.229a1.467,1.467,0,0,0-.36-1.1A1.434,1.434,0,0,0,16.734,11.6Zm9.554,5.291a1.317,1.317,0,0,0,.967-.338,1.241,1.241,0,0,0,.334-.945h2.777a3.288,3.288,0,0,1-1.121,2.566,4.168,4.168,0,0,1-2.887,1,4.22,4.22,0,0,1-3.27-1.3,5.125,5.125,0,0,1-1.2-3.6v-.123a5.792,5.792,0,0,1,.532-2.544,3.872,3.872,0,0,1,1.534-1.7,4.573,4.573,0,0,1,2.373-.593,4.116,4.116,0,0,1,2.944,1.028,3.647,3.647,0,0,1,1.09,2.786H27.589A1.626,1.626,0,0,0,27.229,12a1.244,1.244,0,0,0-.967-.4q-1.151,0-1.345,1.468a10.357,10.357,0,0,0-.062,1.283,4.068,4.068,0,0,0,.343,1.986A1.187,1.187,0,0,0,26.288,16.891ZM34.743,19H31.772V9.49h2.971ZM31.6,7.038A1.322,1.322,0,0,1,32.054,6a1.943,1.943,0,0,1,2.373,0,1.322,1.322,0,0,1,.457,1.037,1.322,1.322,0,0,1-.457,1.037,1.943,1.943,0,0,1-2.373,0A1.322,1.322,0,0,1,31.6,7.038Zm4.6,7.137a5.809,5.809,0,0,1,.976-3.56,3.211,3.211,0,0,1,2.725-1.3,2.731,2.731,0,0,1,2.145,1V5.5h2.971V19H42.346L42.2,17.98a2.8,2.8,0,0,1-2.32,1.2,3.205,3.205,0,0,1-2.689-1.3A5.993,5.993,0,0,1,36.193,14.175Zm2.962.185q0,2.531,1.477,2.531a1.458,1.458,0,0,0,1.406-.826V12.443a1.419,1.419,0,0,0-1.389-.844q-1.371,0-1.485,2.215ZM49.816,19H46.846V9.49h2.971ZM46.67,7.038A1.322,1.322,0,0,1,47.127,6,1.943,1.943,0,0,1,49.5,6a1.322,1.322,0,0,1,.457,1.037A1.322,1.322,0,0,1,49.5,8.075a1.943,1.943,0,0,1-2.373,0A1.322,1.322,0,0,1,46.67,7.038Zm10.723,5.133-.976-.07a1.752,1.752,0,0,0-1.793.879V19H51.662V9.49h2.777l.1,1.222a2.294,2.294,0,0,1,2.083-1.4,2.888,2.888,0,0,1,.826.105Z" transform="translate(-4720.518 -7723.564)" fill="#12263f"/><path d="M.967,19V6.2H5.089a6.064,6.064,0,0,1,3.05.769,5.406,5.406,0,0,1,2.114,2.171,6.554,6.554,0,0,1,.769,3.142v.589a6.592,6.592,0,0,1-.743,3.151A5.429,5.429,0,0,1,8.187,18.2a5.93,5.93,0,0,1-3.01.8ZM4.052,8.585v8.042H5.124a2.4,2.4,0,0,0,2.039-.945,4.63,4.63,0,0,0,.712-2.808V12.32a4.592,4.592,0,0,0-.712-2.795,2.442,2.442,0,0,0-2.074-.94ZM15.592,19H12.621V9.49h2.971ZM12.445,7.038A1.322,1.322,0,0,1,12.9,6a1.724,1.724,0,0,1,1.187-.4,1.724,1.724,0,0,1,1.187.4,1.322,1.322,0,0,1,.457,1.037,1.322,1.322,0,0,1-.457,1.037,1.724,1.724,0,0,1-1.187.4,1.724,1.724,0,0,1-1.187-.4A1.322,1.322,0,0,1,12.445,7.038Zm9.949,9.29a.684.684,0,0,0-.4-.606,6.016,6.016,0,0,0-1.5-.475,6.853,6.853,0,0,1-1.828-.646,3.062,3.062,0,0,1-1.1-.971,2.319,2.319,0,0,1-.378-1.31,2.628,2.628,0,0,1,1.081-2.158,4.453,4.453,0,0,1,2.83-.848,4.934,4.934,0,0,1,3.023.853,2.666,2.666,0,0,1,1.143,2.241H22.3q0-1.143-1.2-1.143a1.194,1.194,0,0,0-.782.259.8.8,0,0,0-.316.646.737.737,0,0,0,.387.642,3.654,3.654,0,0,0,1.235.4,10.671,10.671,0,0,1,1.49.378,2.706,2.706,0,0,1,2.145,2.646A2.491,2.491,0,0,1,24.1,18.358a5.068,5.068,0,0,1-2.993.817,5.172,5.172,0,0,1-2.18-.439,3.645,3.645,0,0,1-1.494-1.2,2.707,2.707,0,0,1-.536-1.591h2.769a1.145,1.145,0,0,0,.439.962,1.808,1.808,0,0,0,1.081.3,1.422,1.422,0,0,0,.91-.246A.787.787,0,0,0,22.395,16.328Zm8.842,2.848a4.889,4.889,0,0,1-3.542-1.305,4.507,4.507,0,0,1-1.354-3.4v-.246a5.84,5.84,0,0,1,.541-2.575,3.955,3.955,0,0,1,1.578-1.727,4.763,4.763,0,0,1,2.461-.611,4.117,4.117,0,0,1,3.164,1.244,4.887,4.887,0,0,1,1.16,3.467v1.151H29.355a2.135,2.135,0,0,0,.694,1.257,2.066,2.066,0,0,0,1.389.457,2.662,2.662,0,0,0,2.2-.984l1.354,1.6a3.784,3.784,0,0,1-1.569,1.217A5.3,5.3,0,0,1,31.236,19.176ZM30.9,11.6q-1.3,0-1.547,1.723h2.988v-.229a1.467,1.467,0,0,0-.36-1.1A1.434,1.434,0,0,0,30.9,11.6ZM39.155,9.49l.1,1.116a3.225,3.225,0,0,1,2.716-1.292,2.713,2.713,0,0,1,2.219.888,4.226,4.226,0,0,1,.76,2.672V19H41.977V13a1.6,1.6,0,0,0-.29-1.059,1.342,1.342,0,0,0-1.055-.338,1.413,1.413,0,0,0-1.292.686V19H36.378V9.49Zm4.913-3.92a2.562,2.562,0,0,1-.584,1.7,1.813,1.813,0,0,1-1.446.7A2.852,2.852,0,0,1,40.746,7.6a2.7,2.7,0,0,0-1.151-.369.66.66,0,0,0-.479.193.8.8,0,0,0-.2.6l-1.644-.088a2.576,2.576,0,0,1,.584-1.687A1.793,1.793,0,0,1,39.3,5.535a2.994,2.994,0,0,1,1.151.321,7.116,7.116,0,0,0,.9.365,1.761,1.761,0,0,0,.4.044.675.675,0,0,0,.483-.193.793.793,0,0,0,.2-.6ZM51.943,19a3.344,3.344,0,0,1-.281-.853,2.754,2.754,0,0,1-2.285,1.028,3.374,3.374,0,0,1-2.285-.813,2.588,2.588,0,0,1-.94-2.043,2.66,2.66,0,0,1,1.143-2.338,5.821,5.821,0,0,1,3.322-.791h.914v-.5q0-1.31-1.134-1.31a.925.925,0,0,0-1.055,1.037H46.38a2.659,2.659,0,0,1,1.173-2.241,4.927,4.927,0,0,1,2.993-.861,4.323,4.323,0,0,1,2.874.888A3.086,3.086,0,0,1,54.5,12.637v4.21a4.311,4.311,0,0,0,.4,2V19Zm-1.854-1.934a1.652,1.652,0,0,0,.918-.237,1.487,1.487,0,0,0,.523-.536V14.772h-.861q-1.547,0-1.547,1.389a.848.848,0,0,0,.272.655A.986.986,0,0,0,50.089,17.066Zm11.8-4.9-.976-.07a1.752,1.752,0,0,0-1.793.879V19H56.162V9.49h2.777l.1,1.222a2.294,2.294,0,0,1,2.083-1.4,2.888,2.888,0,0,1,.826.105Z" transform="translate(-4698.518 -7770.564)" fill="#12263f"/><path d="M8.235,16.609H4.008L3.27,19h-3.3L4.667,6.2h2.9L12.3,19H8.982ZM4.746,14.228H7.5L6.117,9.789Zm12.366,2.663a1.317,1.317,0,0,0,.967-.338,1.241,1.241,0,0,0,.334-.945H21.19a3.288,3.288,0,0,1-1.121,2.566,4.168,4.168,0,0,1-2.887,1,4.22,4.22,0,0,1-3.27-1.3,5.125,5.125,0,0,1-1.2-3.6v-.123A5.792,5.792,0,0,1,13.25,11.6a3.872,3.872,0,0,1,1.534-1.7,4.573,4.573,0,0,1,2.373-.593A4.116,4.116,0,0,1,20.1,10.343a3.647,3.647,0,0,1,1.09,2.786H18.413A1.626,1.626,0,0,0,18.053,12a1.244,1.244,0,0,0-.967-.4q-1.151,0-1.345,1.468a10.357,10.357,0,0,0-.062,1.283,4.068,4.068,0,0,0,.343,1.986A1.187,1.187,0,0,0,17.112,16.891Zm8.78-9.765V9.49h1.564v2.057H25.893V15.9a1.111,1.111,0,0,0,.193.747,1.037,1.037,0,0,0,.765.211,4.345,4.345,0,0,0,.738-.053v2.118a5.466,5.466,0,0,1-1.67.255,3.1,3.1,0,0,1-2.259-.721,2.954,2.954,0,0,1-.729-2.188v-4.72H21.718V9.49h1.213V7.126Zm8.394,10.846a3.054,3.054,0,0,1-2.54,1.2,3,3,0,0,1-2.369-.91,3.826,3.826,0,0,1-.8-2.615V9.49h2.962v6.179a1.065,1.065,0,0,0,1.187,1.222,1.548,1.548,0,0,0,1.45-.729V9.49h2.979V19H34.374ZM44.13,19a3.344,3.344,0,0,1-.281-.853,2.754,2.754,0,0,1-2.285,1.028,3.374,3.374,0,0,1-2.285-.813,2.588,2.588,0,0,1-.94-2.043,2.66,2.66,0,0,1,1.143-2.338A5.821,5.821,0,0,1,42.8,13.19h.914v-.5q0-1.31-1.134-1.31a.925.925,0,0,0-1.055,1.037H38.566a2.659,2.659,0,0,1,1.173-2.241,4.927,4.927,0,0,1,2.993-.861,4.323,4.323,0,0,1,2.874.888,3.086,3.086,0,0,1,1.081,2.435v4.21a4.311,4.311,0,0,0,.4,2V19Zm-1.854-1.934a1.652,1.652,0,0,0,.918-.237,1.487,1.487,0,0,0,.523-.536V14.772h-.861q-1.547,0-1.547,1.389a.848.848,0,0,0,.272.655A.986.986,0,0,0,42.275,17.066Zm11.8-4.9L53.1,12.1a1.752,1.752,0,0,0-1.793.879V19H48.349V9.49h2.777l.1,1.222a2.294,2.294,0,0,1,2.083-1.4,2.888,2.888,0,0,1,.826.105Z" transform="translate(-4672.518 -7817.564)" fill="#12263f"/></g></svg>